<svg xmlns="http://www.w3.org/2000/svg" width="34.724" height="23.979" viewBox="0 0 34.724 23.979"><defs><style>.a{fill:#dd9a18;}</style></defs><g transform="translate(0 0)"><path class="a" d="M579.384-188.868a4.166,4.166,0,0,1-.89,1.327,4.16,4.16,0,0,1-1.327.89,4.148,4.148,0,0,1-1.638.324,4.078,4.078,0,0,1-1.611-.324,4.335,4.335,0,0,1-1.34-.89,4.041,4.041,0,0,1-.9-1.327,4.127,4.127,0,0,1-.324-1.638,4.127,4.127,0,0,1,.324-1.638,4.045,4.045,0,0,1,.9-1.327,4.352,4.352,0,0,1,1.34-.89,4.078,4.078,0,0,1,1.611-.324,4.148,4.148,0,0,1,1.638.324,4.17,4.17,0,0,1,1.327.89,4.166,4.166,0,0,1,.89,1.327,4.146,4.146,0,0,1,.324,1.638,4.146,4.146,0,0,1-.324,1.638m3.869-4.887a8.7,8.7,0,0,0-1.794-2.669,8.186,8.186,0,0,0-2.669-1.794,8.308,8.308,0,0,0-3.262-.65,8.441,8.441,0,0,0-2.2.282,7.1,7.1,0,0,0-1.849.69v-8.227h-4.31v18.753a.991.991,0,0,1-.31.748,1.029,1.029,0,0,1-.539.279h-.35a1.794,1.794,0,0,0-1.307.525,1.794,1.794,0,0,0-.525,1.307v.53a1.794,1.794,0,0,0,.525,1.307,1.794,1.794,0,0,0,1.307.525h.155v0a5.15,5.15,0,0,0,2.288-.508,5.2,5.2,0,0,0,1.779-1.412,8.161,8.161,0,0,0,2.444,1.412,8.232,8.232,0,0,0,2.895.508,8.3,8.3,0,0,0,3.262-.65,8.17,8.17,0,0,0,2.669-1.793,8.76,8.76,0,0,0,1.794-2.656,8.026,8.026,0,0,0,.664-3.262,8.063,8.063,0,0,0-.664-3.249" transform="translate(-564.134 206.122)"/><path class="a" d="M600.978-197.494h-7.043a5.125,5.125,0,0,0-2.033.41,5.232,5.232,0,0,0-1.667,1.116,5.222,5.222,0,0,0-1.116,1.667,5.123,5.123,0,0,0-.409,2.033,5.118,5.118,0,0,0,.409,2.033,5.222,5.222,0,0,0,1.116,1.667,5.219,5.219,0,0,0,1.667,1.116,5.124,5.124,0,0,0,2.033.409h2.091a.991.991,0,0,1,.748.311,1.027,1.027,0,0,1,.3.734,1.01,1.01,0,0,1-.3.748,1.014,1.014,0,0,1-.748.3h-3.136a1.029,1.029,0,0,1-.735-.3.991.991,0,0,1-.31-.748v-1.017h-4.181V-186a5.121,5.121,0,0,0,.41,2.033,5.216,5.216,0,0,0,1.116,1.667,5.232,5.232,0,0,0,1.667,1.116,5.121,5.121,0,0,0,2.033.409h3.136a5.1,5.1,0,0,0,2.048-.409,5.3,5.3,0,0,0,1.653-1.116,5.232,5.232,0,0,0,1.116-1.667,5.127,5.127,0,0,0,.409-2.033,5.132,5.132,0,0,0-.409-2.034,5.238,5.238,0,0,0-1.116-1.666,5.314,5.314,0,0,0-1.653-1.116,5.112,5.112,0,0,0-2.048-.409h-2.092a1,1,0,0,1-.734-.31,1,1,0,0,1-.311-.734.992.992,0,0,1,.311-.749,1.026,1.026,0,0,1,.734-.3H602.6l.008-4.186" transform="translate(-567.885 204.748)"/></g></svg>