<svg xmlns="http://www.w3.org/2000/svg" width="16.981" height="24.644" viewBox="0 0 16.981 24.644"><defs><style>.a{fill:#dd9a18;}</style></defs><g transform="translate(0 0)"><path class="a" d="M602.4,38.644a.947.947,0,0,0-.61-.871,9.072,9.072,0,0,0-1.568-.871c-1.132-.435-2.264-.871-3.4-1.393A7.328,7.328,0,0,1,595,34.551a1.373,1.373,0,0,1-.61-.61.653.653,0,0,1-.087-.435V29.5a1.893,1.893,0,0,0,.435.7,8.013,8.013,0,0,0,2.09,1.132c.871.348,1.829.7,2.7,1.045.61.261,1.132.522,1.655.784a2.472,2.472,0,0,1,.958.7,1.9,1.9,0,0,1,.261.435l.087.087C602.4,35.857,602.4,37.25,602.4,38.644Z" transform="translate(-585.503 -19.05)"/><path class="a" d="M602.437,28.015c-.087.087-.087.174-.174.261a3.124,3.124,0,0,1-.871.61,19.908,19.908,0,0,1-2,.871,7.657,7.657,0,0,1-1.306.435h-.174a19.91,19.91,0,0,1-2-.871,2.471,2.471,0,0,1-.958-.7,1.4,1.4,0,0,1-.348-.61c0-.087,0-.087.087-.174a3.863,3.863,0,0,1,.958-.7c.871-.522,1.828-.784,2.7-1.219.784-.348,1.568-.61,2.351-.958a4.7,4.7,0,0,0,1.132-.61,1.394,1.394,0,0,0,.609-.784V23.4C602.437,25.055,602.437,26.535,602.437,28.015Z" transform="translate(-585.543 -18.262)"/><path class="a" d="M592.324,17.5v4.267a.657.657,0,0,1-.349.61,6.3,6.3,0,0,1-1.655.958,20.075,20.075,0,0,1-2.438.871h-.174c-.61-.261-1.132-.435-1.742-.7a3.657,3.657,0,0,1-1.219-.784,1.4,1.4,0,0,1-.348-.61c0-.087,0-.087.087-.174a3.126,3.126,0,0,1,.871-.61,15.068,15.068,0,0,1,2.7-1.219c.7-.261,1.306-.522,2-.784a9.062,9.062,0,0,0,1.568-.871c.174-.174.435-.348.522-.61.087-.174.087-.261.174-.348Z" transform="translate(-584.225 -17.5)"/><path class="a" d="M592.3,44.47a1.992,1.992,0,0,0-.61-.871,14.072,14.072,0,0,0-1.568-.871,24.153,24.153,0,0,0-2.264-.871,19.2,19.2,0,0,1-2.351-1.045,7.246,7.246,0,0,1-1.045-.7.988.988,0,0,1-.262-.7V35.5a.753.753,0,0,0,.261.522,4.192,4.192,0,0,0,.958.784c.871.435,1.742.784,2.612,1.132s1.655.7,2.526,1.045a4.936,4.936,0,0,1,1.132.7,1,1,0,0,1,.523.784v.087C592.3,41.77,592.3,43.163,592.3,44.47Z" transform="translate(-584.199 -19.825)"/><path class="a" d="M592.3,32.37a.752.752,0,0,0-.261-.523,3.868,3.868,0,0,0-.958-.7c-.871-.435-1.829-.784-2.7-1.219-.784-.261-1.48-.61-2.264-.958a9.517,9.517,0,0,1-1.306-.7,1.549,1.549,0,0,1-.61-.7V23.4a.889.889,0,0,0,.436.7,5.834,5.834,0,0,0,1.567.958,13.9,13.9,0,0,1,2,.871c.61.261,1.219.435,1.742.7a10.39,10.39,0,0,1,1.393.7,3.407,3.407,0,0,1,.871.7,1.239,1.239,0,0,1,.174.522C592.3,29.844,592.3,31.15,592.3,32.37Z" transform="translate(-584.199 -18.262)"/><path class="a" d="M594.187,44.818V40.725a.914.914,0,0,1,.435-.784,4.843,4.843,0,0,1,1.481-.784c.784-.348,1.654-.61,2.438-.958h.261l1.829.784a2.376,2.376,0,0,1,1.045.784.751.751,0,0,1,.261.522c0,.087,0,.174-.087.174a3.863,3.863,0,0,1-.958.7,15.9,15.9,0,0,1-2.787,1.219,17.647,17.647,0,0,0-2.264.958,8.707,8.707,0,0,0-1.219.7c-.174.174-.435.348-.522.61C594.274,44.644,594.187,44.731,594.187,44.818Z" transform="translate(-585.478 -20.174)"/><path class="a" d="M592.063,34.364c0,.087-.087.087-.087.174a3.869,3.869,0,0,1-.958.7,13.894,13.894,0,0,1-2,.871c-.435.174-.784.261-1.219.435h-.174a18.6,18.6,0,0,1-1.916-.871,2.466,2.466,0,0,1-.958-.7.882.882,0,0,1-.349-.61v-.087a4.787,4.787,0,0,1,.784-.61,17.582,17.582,0,0,1,2.612-1.219c.261-.087.609-.261.871-.348h.174c.522.174.958.435,1.48.61a8.672,8.672,0,0,1,1.219.7,1.17,1.17,0,0,1,.523.61C591.976,34.1,592.063,34.19,592.063,34.364Z" transform="translate(-584.225 -19.386)"/></g></svg>