<svg xmlns="http://www.w3.org/2000/svg" width="21.007" height="31.441" viewBox="0 0 21.007 31.441"><defs><style>.a{fill:#dd9a18;}</style></defs><path class="a" d="M26.36,22.222a14.674,14.674,0,0,0-.727-3.639,12.327,12.327,0,0,0-6.7-7.132C10.931,7.667,7.292,5.92,5.691,3.882h0A1.1,1.1,0,0,1,5.4,3.3h0c0,.437.145,1.019.145,1.6A14.34,14.34,0,0,0,9.33,12.47,11.43,11.43,0,0,0,12.677,14.8c.291.145.437.291.727.291,6.259,2.475,8.442,5.822,8.442,5.822.145.145.145.145.145.291h0a.536.536,0,0,1-.145.437h0c-.145,0-.145.145-.291.145s-.291,0-.291-.145v-.145l-1.019-1.019a25.546,25.546,0,0,0-6.84-4.221c-.145,0-.145-.145-.291-.145v.145a8.589,8.589,0,0,0,3.493,5.094c.145,0,.145.145.291.145.145.145.582.437,1.164.873a16.127,16.127,0,0,1,4.512,4.367h0c0,.145.145.145.145.291a.626.626,0,0,1-.582.583c-.145,0-.291-.145-.437-.145h0v-.145a11.821,11.821,0,0,0-3.2-3.348c-1.019-.727-1.747-1.165-1.747-1.165h0c.291,3.2,2.182,4.8,3.93,6.4a22.385,22.385,0,0,1,1.892,1.747,7.758,7.758,0,0,1,1.455,3.784h0a1.1,1.1,0,0,1,.291-.582A64.369,64.369,0,0,0,26.067,27.9,25.2,25.2,0,0,0,26.36,22.222Z" transform="translate(-5.4 -3.3)"/></svg>