<svg xmlns="http://www.w3.org/2000/svg" width="30.252" height="23.215" viewBox="0 0 30.252 23.215"><defs><style>.a{fill:#dd9a18;}</style></defs><path class="a" d="M634.861,543.363s1.734-4.67-2.268-5.292-11.652-.178-11.919-5.114c0,0-2.846-.044-3.557-4.848,0,0-3.6-2.135-2.58-7.961,0,0,3.647,3.825,7.649,4.714s14.409.356,17.389,1.645,9.651,4.848,0,15.521c0,0,4.67-5.381,2.8-9.206s-6.842-4.253-13.654-4.023c-5.87.2-8.8-2.692-8.8-2.692s-.8,1.868,1.868,3.558a1.822,1.822,0,0,1-1.334.133s.044,2.491,5.248,2.98c0,0-1.334.89-1.067,1.245s.356,1.823,4.848,2.357S639.931,537.626,634.861,543.363Z" transform="translate(-614.354 -520.148)"/></svg>