<svg xmlns="http://www.w3.org/2000/svg" width="29.528" height="15.986" viewBox="0 0 29.528 15.986"><defs><style>.a{fill:#dd9a18;}</style></defs><path class="a" d="M9.9,16.91H8.24s-.107.161,0,.214S9.9,17.231,9.9,18.569v5.939L.321,16.7C.054,16.482,0,16.589,0,16.749V32.212H0v.053H5.457s.107-.161,0-.214-1.605-.268-1.605-1.177V24.561l9.577,7.865c.268.214.321.161.321-.053V16.91Z" transform="translate(0 -16.576)"/><path class="a" d="M42.179,32.335c-.107-.054-1.124,0-1.391-.482l-2.3-3.638a5.276,5.276,0,0,0,2.782-4.922c0-3.371-2.3-5.992-6.42-5.992h-7.49s-.107.161,0,.214,1.659.214,1.659,1.445V24.9h0v7.651h4.066V29.071h1.552l2.14,3.478h5.4s.107-.161,0-.214m-7.544-6.528h-1.5V20.778h1.5a2.256,2.256,0,0,1,2.515,2.515,2.233,2.233,0,0,1-2.515,2.515" transform="translate(-12.699 -16.913)"/></svg>