<svg xmlns="http://www.w3.org/2000/svg" width="37.865" height="32.048" viewBox="0 0 37.865 32.048"><defs><style>.a{fill:#dd9a18;}</style></defs><path class="a" d="M41.788,7.692a3.351,3.351,0,0,0,1.5-.337A3.676,3.676,0,0,0,45.1,5.233a4.4,4.4,0,0,0,.233-1.4,2.426,2.426,0,0,0-.6-1.709,2.2,2.2,0,0,0-1.657-.647,3.358,3.358,0,0,0-1.424.311,3.905,3.905,0,0,0-1.113.828,4.086,4.086,0,0,0-.958,2.692,2.336,2.336,0,0,0,.621,1.709A1.94,1.94,0,0,0,41.788,7.692Zm-.906-3.339a5.035,5.035,0,0,1,.362-1.165A2.335,2.335,0,0,1,42,2.2a1.551,1.551,0,0,1,.932-.311,1.067,1.067,0,0,1,.88.414,2.2,2.2,0,0,1,.311,1.268,7.6,7.6,0,0,1-.129,1.32A4.558,4.558,0,0,1,43.6,6.035a2.41,2.41,0,0,1-.673.854A1.521,1.521,0,0,1,42,7.226a.966.966,0,0,1-.88-.44,2.078,2.078,0,0,1-.285-1.294A4.255,4.255,0,0,1,40.882,4.353ZM46.5,6.216c-.026.1-.026.207-.052.285,0,.078-.026.181-.026.259a.745.745,0,0,0,.259.647,1.2,1.2,0,0,0,.828.233,3.408,3.408,0,0,0,.88-.1c.259-.078.518-.181.777-.285l.1-.44a2.192,2.192,0,0,1-.44.1,2.511,2.511,0,0,1-.44.026.834.834,0,0,1-.6-.155.572.572,0,0,1-.155-.492c0-.129.026-.233.026-.362.026-.129.052-.285.078-.44L48.519,2.2h1.657L50.3,1.66H48.674L49.088-.1H48.027l-.414,1.76H46.525L46.4,2.2h1.061Zm4.245,0c-.026.1-.026.207-.052.285,0,.078-.026.181-.026.259a.745.745,0,0,0,.259.647,1.2,1.2,0,0,0,.828.233,3.408,3.408,0,0,0,.88-.1c.259-.078.518-.181.777-.285l.1-.44a2.192,2.192,0,0,1-.44.1,2.511,2.511,0,0,1-.44.026.834.834,0,0,1-.6-.155.572.572,0,0,1-.155-.492c0-.129.026-.233.026-.362.026-.129.052-.285.078-.44L52.764,2.2h1.657l.129-.544H52.894l.44-1.734H52.272l-.414,1.76H50.745l-.129.544h1.061Zm6.109,1.476a3.351,3.351,0,0,0,1.5-.337,3.676,3.676,0,0,0,1.812-2.123,4.4,4.4,0,0,0,.233-1.4,2.426,2.426,0,0,0-.6-1.709,2.2,2.2,0,0,0-1.657-.647,3.358,3.358,0,0,0-1.424.311,3.9,3.9,0,0,0-1.113.828,4.086,4.086,0,0,0-.958,2.692,2.336,2.336,0,0,0,.621,1.709A1.908,1.908,0,0,0,56.854,7.692Zm-.906-3.339a5.035,5.035,0,0,1,.362-1.165,2.335,2.335,0,0,1,.751-.984,1.551,1.551,0,0,1,.932-.311,1.067,1.067,0,0,1,.88.414,2.2,2.2,0,0,1,.311,1.268,7.6,7.6,0,0,1-.129,1.32,4.558,4.558,0,0,1-.388,1.139,2.41,2.41,0,0,1-.673.854,1.521,1.521,0,0,1-.932.337.966.966,0,0,1-.88-.44A2.078,2.078,0,0,1,55.9,5.492a3.4,3.4,0,0,1,.052-1.139Zm-1.424,7.688a.864.864,0,0,0,.233-.6.835.835,0,0,0-.207-.544.745.745,0,0,0-.544-.233.652.652,0,0,0-.518.233.8.8,0,0,0-.233.57.705.705,0,0,0,.233.544.652.652,0,0,0,.518.233A.529.529,0,0,0,54.524,12.041Zm-1.941,3.754-.621,2.537q-.039.233-.078.388a1.062,1.062,0,0,0-.026.285.928.928,0,0,0,.233.621,1.04,1.04,0,0,0,.725.259,2.156,2.156,0,0,0,.569-.078,5.067,5.067,0,0,0,.88-.311l.078-.388c-.1.026-.207.052-.337.078a1.368,1.368,0,0,1-.337.026.679.679,0,0,1-.492-.129.6.6,0,0,1-.155-.466,1.528,1.528,0,0,1,.052-.362,3.013,3.013,0,0,1,.1-.466l.647-2.537c.026-.129.052-.233.078-.362a1.161,1.161,0,0,0,.026-.285A.813.813,0,0,0,53,13.749a2.4,2.4,0,0,0-.6.1,4.543,4.543,0,0,0-.828.311l-.078.388a2.218,2.218,0,0,1,.337-.078c.1-.026.233-.026.337-.052a.658.658,0,0,1,.44.1.658.658,0,0,1,.1.44,2.265,2.265,0,0,1-.052.414c-.026.129-.052.285-.078.414ZM56.6,17.762l1.683-7.2-.052-.078L56,10.617l-.078.362c.129.026.259.026.388.052a.689.689,0,0,1,.311.078.461.461,0,0,1,.207.181.717.717,0,0,1,.078.337.441.441,0,0,1-.026.181,2.17,2.17,0,0,1-.052.259l-1.45,6.291q-.039.233-.078.388a1.062,1.062,0,0,0-.026.285.841.841,0,0,0,.259.621,1.085,1.085,0,0,0,.725.259,2.608,2.608,0,0,0,.647-.078,7.6,7.6,0,0,0,.828-.311l.078-.388c-.1.026-.233.052-.362.078a1.709,1.709,0,0,1-.362.026.679.679,0,0,1-.492-.129.522.522,0,0,1-.155-.466,1.528,1.528,0,0,1,.052-.362A2.61,2.61,0,0,1,56.6,17.762Zm2.8-6.782c.129.026.259.026.388.052a.689.689,0,0,1,.311.078.46.46,0,0,1,.207.181.717.717,0,0,1,.078.337.441.441,0,0,1-.026.181,2.167,2.167,0,0,1-.052.259l-1.45,6.291q-.039.233-.078.388a1.062,1.062,0,0,0-.026.285.841.841,0,0,0,.259.621,1.085,1.085,0,0,0,.725.259,2.608,2.608,0,0,0,.647-.078,7.6,7.6,0,0,0,.828-.311l.078-.388c-.1.026-.233.052-.362.078a1.709,1.709,0,0,1-.362.026.679.679,0,0,1-.492-.129.522.522,0,0,1-.155-.466,1.527,1.527,0,0,1,.052-.362c.026-.155.078-.311.1-.466l1.683-7.2-.052-.078-2.226.129-.078.311Zm4.841,8.931a2.733,2.733,0,0,0,1.476-.44A3.658,3.658,0,0,0,66.9,18.306l-.337-.259a3.264,3.264,0,0,1-.906.88,1.889,1.889,0,0,1-1.061.311,1.157,1.157,0,0,1-1.035-.492,2.366,2.366,0,0,1-.337-1.45,12.393,12.393,0,0,0,1.243-.207,7.912,7.912,0,0,0,1.113-.337,2.765,2.765,0,0,0,1.165-.725,1.565,1.565,0,0,0,.388-1.087,1.24,1.24,0,0,0-.414-.906,2.021,2.021,0,0,0-1.268-.362,3.034,3.034,0,0,0-1.424.337,3.632,3.632,0,0,0-1.087.906,3.939,3.939,0,0,0-.7,1.243,4.593,4.593,0,0,0-.233,1.45,2.069,2.069,0,0,0,2.226,2.3Zm-.181-5a1.727,1.727,0,0,1,1.32-.777.717.717,0,0,1,.233.026.823.823,0,0,1,.233.078.4.4,0,0,1,.155.207.827.827,0,0,1,.078.362,2.016,2.016,0,0,1-.233.958,1.737,1.737,0,0,1-.725.647,3.5,3.5,0,0,1-.88.285c-.362.078-.673.129-.932.181A3.825,3.825,0,0,1,64.051,14.914ZM43.6,8.65a2.814,2.814,0,0,0-.854.7,3.308,3.308,0,0,0-.544.984,3.387,3.387,0,0,0-.181,1.139,1.86,1.86,0,0,0,.44,1.32,1.654,1.654,0,0,0,1.268.466,2.432,2.432,0,0,0,1.191-.337,2.991,2.991,0,0,0,.958-.932l-.259-.207a2.655,2.655,0,0,1-.725.7,1.606,1.606,0,0,1-.828.233.906.906,0,0,1-.8-.388,1.971,1.971,0,0,1-.285-1.139c.362-.052.7-.1.984-.155a8.733,8.733,0,0,0,.88-.259,2.081,2.081,0,0,0,.906-.57,1.287,1.287,0,0,0,.311-.854.8.8,0,0,0-.337-.7,1.541,1.541,0,0,0-1.01-.285A2.537,2.537,0,0,0,43.6,8.65Zm1.424.155a.687.687,0,0,1,.129.155,1.1,1.1,0,0,1,.052.285,1.532,1.532,0,0,1-.181.751,1.171,1.171,0,0,1-.6.518,2.772,2.772,0,0,1-.7.233c-.285.052-.518.1-.751.129a3.361,3.361,0,0,1,.6-1.553A1.345,1.345,0,0,1,44.61,8.7a.57.57,0,0,1,.207.026.294.294,0,0,1,.207.078Zm5.022-.44a.977.977,0,0,0-.6.207,10.851,10.851,0,0,0-.854.673H48.57a1.061,1.061,0,0,0-.155-.621.61.61,0,0,0-.544-.207,1.625,1.625,0,0,0-.492.078c-.233.078-.44.155-.647.233l-.078.311a2.242,2.242,0,0,1,.259-.052.881.881,0,0,1,.259-.026.578.578,0,0,1,.362.078.449.449,0,0,1,.078.362,1.515,1.515,0,0,1-.052.337,2.219,2.219,0,0,1-.078.337l-.7,3.081h.88l.751-3.391a2.772,2.772,0,0,1,.492-.466,2.236,2.236,0,0,1,.414-.259,1.583,1.583,0,0,1,.311-.129.441.441,0,0,1,.181-.026c-.052.129-.1.233-.155.362a.717.717,0,0,0-.078.337.416.416,0,0,0,.129.285.637.637,0,0,0,.673.052.7.7,0,0,0,.181-.207,1.082,1.082,0,0,0,.1-.259,1.062,1.062,0,0,0,.026-.285,1.006,1.006,0,0,0-.052-.388.611.611,0,0,0-.155-.233,1.049,1.049,0,0,0-.233-.129.4.4,0,0,0-.207-.052ZM67.105,24.907c-1.165-2.692-4.685-3.935-7.455-4.064s-6.73.828-10.976,2.071L45.619,19.7l1.035-4.4a3.165,3.165,0,0,1,.854-.7,1.631,1.631,0,0,1,.777-.181.628.628,0,0,1,.544.233,1.086,1.086,0,0,1,.181.621c0,.1-.026.233-.026.337-.026.129-.052.285-.1.466l-.6,2.226c-.026.155-.052.259-.078.362a1.062,1.062,0,0,0-.026.285.928.928,0,0,0,.233.621,1.085,1.085,0,0,0,.725.259,2.156,2.156,0,0,0,.569-.078,5.067,5.067,0,0,0,.88-.311l.1-.388c-.1.026-.207.052-.337.078a1.368,1.368,0,0,1-.337.026.679.679,0,0,1-.492-.129.723.723,0,0,1-.155-.466,2,2,0,0,1,.052-.388c.026-.155.078-.311.1-.44l.492-1.916a4.017,4.017,0,0,0,.1-.544,1.959,1.959,0,0,0,.026-.388,1.27,1.27,0,0,0-.311-.88,1.114,1.114,0,0,0-.88-.337,2.286,2.286,0,0,0-1.165.285,6.953,6.953,0,0,0-1.139.8h-.026a1.154,1.154,0,0,0-1.217-1.087,2.649,2.649,0,0,0-1.087.233,7.165,7.165,0,0,0-1.165.8h-.026a1.3,1.3,0,0,0-.207-.7.825.825,0,0,0-.673-.259,2.6,2.6,0,0,0-.621.1,4.543,4.543,0,0,0-.828.311l-.078.388a2.687,2.687,0,0,1,.311-.078,1.515,1.515,0,0,1,.337-.052.469.469,0,0,1,.569.311.441.441,0,0,1,0,.259,2.266,2.266,0,0,1-.052.414,2.194,2.194,0,0,1-.1.44l-.906,3.883H42L43,15.354a3.009,3.009,0,0,1,.958-.751,2.452,2.452,0,0,1,.751-.181.708.708,0,0,1,.57.233.884.884,0,0,1,.181.621.5.5,0,0,1-.026.207c-.026.1-.026.181-.052.285l-.932,3.987L47.613,23.2c-6.963,1.812-8.853,1.45-8.853,1.45s-8.025.207-8.154-4.867c-.129-5.2,7.378-3.909,7.378-3.909l.052-.88s-.181-.026-.492-.052c-.026,0-.078-.026-.1-.026a.52.52,0,0,1-.207-.1.32.32,0,0,1-.1-.207.328.328,0,0,1,.026-.155.756.756,0,0,1,.052-.233l.285-1.243a4.187,4.187,0,0,0,.466.259,1.93,1.93,0,0,0,.673.1,2.2,2.2,0,0,0,.984-.233,2.5,2.5,0,0,0,.88-.673,3.335,3.335,0,0,0,.8-2.2,2.033,2.033,0,0,0-.388-1.32,1.358,1.358,0,0,0-1.113-.492,1.392,1.392,0,0,0-.725.207,3.388,3.388,0,0,0-.7.492h-.026a.959.959,0,0,0-.207-.466.572.572,0,0,0-.492-.155,1.625,1.625,0,0,0-.492.078,4.818,4.818,0,0,0-.647.259l-.078.311a2.242,2.242,0,0,1,.259-.052c.078-.026.181-.026.259-.052a.578.578,0,0,1,.362.078.449.449,0,0,1,.078.362,1.26,1.26,0,0,1-.026.311c-.026.129-.052.233-.078.362L36.3,14.5a.575.575,0,0,1-.129.285.377.377,0,0,1-.233.155h-.052c-.078,0-.129.026-.207.026-1.5.181-5.954.854-5.98,5.307a5.57,5.57,0,0,0,3.779,5c4.452,1.709,10.355.155,13.176-.777.518-.155,1.113-.311,1.709-.492,1.812,1.864,7.274,7.067,11.649,7.74a8.254,8.254,0,0,0,1.6.207h.362c5.384-.233,6.316-4.271,5.125-7.041ZM38.319,9.53a2.382,2.382,0,0,1,.647-.492,1.071,1.071,0,0,1,.492-.129.948.948,0,0,1,.466.1.752.752,0,0,1,.285.285,1.353,1.353,0,0,1,.155.414,3.172,3.172,0,0,1,.052.492,4.957,4.957,0,0,1-.129,1.061,3.316,3.316,0,0,1-.362.88,1.785,1.785,0,0,1-.57.6,1.3,1.3,0,0,1-.7.207.928.928,0,0,1-.621-.233.806.806,0,0,1-.285-.492ZM66.173,29.54c-3.029,3.029-8.9.207-12.3-1.942l-.233-.155a45.48,45.48,0,0,1-4.271-3.779c1.527-.44,3-.854,3.7-1.01a27.273,27.273,0,0,1,7.326-.518C66.613,22.732,68.037,27.651,66.173,29.54Z" transform="translate(-29.699 0.1)"/></svg>