<svg xmlns="http://www.w3.org/2000/svg" width="53.012" height="18.722" viewBox="0 0 53.012 18.722"><defs><style>.a{fill:#dd9a18;fill-rule:evenodd;opacity:0.9;}</style></defs><g transform="translate(0 0)"><path class="a" d="M849.985,18.065h0v.062h-.124v-.062h.124M845.6,17.88h0l.062.124h0v.124h0v.062h0v.062h-.185v-.185h0V18h0v-.062h0a.062.062,0,0,0,.062-.062Zm7.97-1.3h0l.062.062h0v.124h0v.124h0v.062h0v.062h.124v.247h0v.062h0v.062h-.124c0-.062,0-.062-.062-.062,0-.062,0-.062-.062-.062h0v-.124h0v-.247h0v-.185h0v-.062h0v-.062Zm-6.858-.062h.123v.124h0v.062l-.062.062h-.247v-.124h0a.062.062,0,0,0,.062-.062c.124,0,.124-.062.124-.062h0m.123-.494h0v.124h0v.062h0v.062h-.062V16.15h0l.062-.062a.062.062,0,0,0,.062-.062h-.062M854,15.841h.062a.062.062,0,0,0,.062.062v.185H854c0-.062,0,0-.062-.062h-.062v-.185Zm-5.066-.371H849v.062h-.124V15.47c0,.062,0,0,.062,0h0m-3.027-.927h.371a.062.062,0,0,0,.062.062c0,.062,0,0,.062.062v.185h0v.062h0v.062h0v.062h0a.062.062,0,0,1-.062.062l-.062.062h0l-.062.062h-.494v.062a.062.062,0,0,0-.062.062h0l-.062.062h-.124v-.062h0l.062-.062h0v-.062h0v-.062h0V15.1h0c0-.062,0-.062-.062-.062h-.062c0-.062,0,0-.062-.062h0v-.124h.556v-.309h0m6.8-.062h0c.062.062.123.062.123.124H852.7c0-.062-.062-.062,0-.124h0m.123-.8h0l.062.062h0V13.8h0v.062h0v.062h0v.247h0V14.3h0l-.062.062h-.247a.062.062,0,0,0-.062-.062v-.062h0v-.309h0V13.8h0V13.74h0v-.062a.062.062,0,0,0,.062-.062h0v-.062c.185.124.185.124.247.124h0m-3.089-.556h.185v.185h0v.062h0l-.123.124h-.185l-.062-.062h0v-.124h0v-.062h0v-.062h0v-.062Zm-4.016-.433h.124l.062.062v.062h0v.062h0l-.062.062h0c-.062,0,0,0-.062.062h-.371v-.062h0v-.062a.062.062,0,0,0,.062-.062h0a.062.062,0,0,0,.062-.062h.062c.062-.062.062-.062.123-.062Zm8.9-.124h0c.062,0,.062.062,0,0h.124a.062.062,0,0,0-.062.062h-.062v-.062ZM847.39,12.5h.247a.062.062,0,0,0,.062.062h0v.062h0v.062l-.062.062h-.123l-.062.062h0a.062.062,0,0,1-.062.062h0a.062.062,0,0,0-.062.062h-.8a.062.062,0,0,0-.062-.062v-.124h0V12.69h0v-.062h0V12.5h0v-.062h.247a.062.062,0,0,0,.062-.062h.062c0-.062.062-.062.124-.124l.062-.062.062-.062c.309.433.309.433.309.371h0m7.847-.185h.123v.062h0v.062H855.3C855.3,12.381,855.237,12.381,855.237,12.319Zm-.556-.062h.062v.062h0c-.062,0-.062,0-.062.062H854.5v-.062h.062c.124-.062.124,0,.124-.062Zm-.618-.247h0l.062.124h0l-.062-.062c-.062,0-.062,0,0-.062h0m.371-.124h0v.062h-.062l.062-.062h0m-2.719-.247h0V11.7h-.062l.062-.062Zm-1.668-.927h.062v.062h0v.062h0v.247h0v.124h.062v.062h-.124c0-.062,0,0-.061-.062v-.062h0l-.062-.062a.062.062,0,0,0-.062-.062V10.96h0v-.124h0v-.124h0v-.124h0c.185.185.185.185.185.124h0m2.781-.494h0m-1.607-.371h.062v.124h0a.062.062,0,0,1-.062.062v.062l.062.062h0v.062h0v.062h.062v.185h0v.062h.062v.124h0l-.062.062h.062v-.062h.124v.124c-.062,0,0,0-.062.062h-.556a.062.062,0,0,0-.062-.062h-.062c0-.062,0-.062-.062-.062a.062.062,0,0,0-.062-.062v-.185h0V10.28h0v-.124l.062-.062h.062V9.971l.062-.062h.185l.185-.062h0m-1.977-.494h.371v.062h0l.062.062v.062h-.432c-.062,0-.062,0-.062.062h0V9.292h0V9.23h.123l-.062.124Zm4.449-.556h.062v.062h0v.124h0l-.062.062h0v.062h0v.062h0v.124l-.062.062h-.186c-.061,0-.061,0-.061.062h0V9.6h0v.124h0v.124h0l-.062.062h0a.062.062,0,0,0-.062.062H853.2v.185h0v.185h0a.062.062,0,0,0-.062.062h0v.062h0v.062h0v.062h.309v.185h-.061v.309h0v-.062h0v.062h.061v.062h0a.062.062,0,0,0-.061.062h-.062v-.062h0v.062H853.2v-.124h-.123v-.062h0V10.96h0a.062.062,0,0,0,.062-.062v-.062h0l-.062.062h-.062c0-.062,0-.062-.062-.062H852.7a.062.062,0,0,0-.062.062h-.309v-.062h0v-.062h0v-.124h0v-.062h0a.062.062,0,0,0,.062-.062h0v-.062h0a.062.062,0,0,1,.062-.062h0l-.062-.062V10.28h.123v-.062l.062-.062h.062V9.848h0V9.724h.062V9.6h0V9.539l.062-.062h0l.062-.062h.062V9.353h0V9.292h.124a.062.062,0,0,0,.062-.062h0V9.106h0V9.045h.124l.494-.247h0m0-.247h.247v.062h0v.124h-.123a.062.062,0,0,0-.062-.062c0-.062,0-.062-.062-.062V8.55Zm.371-.618h.062v.062h-.062V7.932h0m5.375-.062h0a.062.062,0,0,1,.062.062l-.062-.062.062.062h-.062V7.871h0C859.5,7.932,859.438,7.932,859.438,7.871Zm-15.632-.062h.124v.124a.062.062,0,0,0-.062.062h-.309V7.871h0c.123,0,.185,0,.247-.062h0m10.751-.741h.061v.062h0v.062H854.5V7.129l.062-.062h0m-7.909-.185h.309v.062h-.185v.124h.185a.062.062,0,0,0,.062.062h0v.062h0c0,.062,0,.062.062.062a.062.062,0,0,0,.062.062h0v.062h0V7.5H846.9l-.062-.062h0l-.062-.062h0l-.062-.062h-.062V7.191h0V6.944h-.062V6.82h0c0,.124,0,.124.062.062h0c-.062.062-.062,0,0,0h0m5.128-.556h.124v.062h-.124V6.326h0m-9.021-.247h0l.062.062h-.123V6.079h.062Zm.495-.371h.247V5.77h-.371V5.708h0a.062.062,0,0,0,.062-.062h.062v.062h0m6.982-.247h.124v.062h-.247l.123-.062h0m1.05-.556h.062c.062.062,0,0-.062,0,.062,0,.062.062,0,0,.062.062,0,.062,0,.062h-.062a.062.062,0,0,0-.062.062.062.062,0,0,1-.062.062.062.062,0,0,1-.062.062h0a.062.062,0,0,0-.062.062h0a.062.062,0,0,0-.062.062h0l-.185.185h0v.062h0v.124h-.062V5.584a.062.062,0,0,0,.061-.062h-.062V5.461h0V5.214h0V5.152h0c.062,0,.062,0,.062-.062h0V4.967h.247V4.9Zm1.668-.247h.185v.062h-.247l.062-.062c0,.062-.062,0,0,0h0m-1.977,0h.124v.062h-.185l.062-.062h0m-5.622-.185h.062l.062.062h0v.124h.062v.062a.062.062,0,0,0-.062.062h0v.062h0V4.9h0l.062.062h0V5.09l-.062.062v.124h0v.062h0V5.4c0,.062,0,.062.062.062h0v.185h0v.185h0v.124h0v.124h0v.062h0l-.062.062h-.247a.062.062,0,0,0-.062-.062H845.1V6.079h-.062a.062.062,0,0,0-.062-.062h-.123l-.062-.062h0V5.893h-.062a.062.062,0,0,1-.062-.062h0a.062.062,0,0,0-.062-.062v.185h0V5.832h0a.062.062,0,0,0-.062-.062h-.185V5.646h.247a.062.062,0,0,0,.062-.062h0a.062.062,0,0,1-.062-.062h0V5.214h0V5.152l.124-.124h0V4.781h0V4.719h0V4.658h0L844.8,4.6h0c.494-.062.494-.062.556-.124h0m12.975-.247h.123v.062h0v.062l-.062.062h0v.062h-.062V4.41h0V4.287h0c-.062,0-.062,0,0-.062h0m-12.3-.247h.185a.062.062,0,0,0,.062.062.062.062,0,0,0,.062.062h.185v.124a.062.062,0,0,0-.062.062h0s-.062,0,0,.062h0a.062.062,0,0,0-.062.062h-.186a.062.062,0,0,0-.062-.062.062.062,0,0,0-.062-.062v.062h0V3.978h-.062c-.062.062-.062,0,0,0h0m-1.483-.062h.185l.062.062h0V4.1h-.247a.062.062,0,0,0-.062-.062l.062-.124h0m14.087-.309h0c0,.062.062,0,.062.062h0v.062h0v.062h.062v.062h-.124v.062h0a.062.062,0,0,0-.062.062h-.062V3.916h0v.062h0l.062-.062h0c.062,0,0,0,.062-.062h0l.062-.062h0V3.669h0V3.607Zm-14.211-.124h0c.062.062.062,0,.062.062v.062h0v.062h0v.062h0v.062h-.123l-.062-.062h0V3.545h0l.062-.062ZM846.9,3.3h0a.062.062,0,0,0,.062.062H846.9Zm-2.78,0h.062l.062.062v.124h0v.062h-.124c0-.062,0,0-.062-.062l-.062-.062Zm14.89-.062h.062v.247l.123.124h0v.062a.062.062,0,0,0,.062.062v.062h0v.185h-.247a.062.062,0,0,0-.062-.062V3.731h-.062V3.669h0V3.545h0V3.484h-.062V3.36h0V3.3h0Zm-15.694-.124h.124a.062.062,0,0,0,.062.062v.247h0a.062.062,0,0,0-.062.062h-.247l-.062-.062h0V3.175a.062.062,0,0,0,.062-.062Zm.618-.247h0l.062.124v.062h0v.062h-.062V2.866h0m-.865-.247h.186v.124h0V2.8c-.062,0,0,0-.062.062H843V2.68h0l.062-.062h0m4.449,0h.124v.124h0V2.8a.062.062,0,0,0-.062.062h0a.062.062,0,0,0-.062.062l-.062.062h0a.062.062,0,0,1-.062.062h-.309v.062h0l.062-.062h0V2.989h0V2.928a.062.062,0,0,1,.062-.062V2.8h0V2.742l.062-.062h0l.062-.062h0c.062.062.124,0,.185,0h0m.309-.433h.124v.062h0V2.31h0a.062.062,0,0,0-.062.062h0v.062h-.123V2.248h0Zm9.515-.309h0a.062.062,0,0,1,.062.062h.062a.062.062,0,0,0,.062.062c.062,0,.062.062.124.062a.062.062,0,0,0,.062.062h.124l.062.062h0a.062.062,0,0,1,.062.062h0v.124h0v.062h0l-.062.062h0v.062h-.124c0-.062,0,0-.062-.062h0c0-.062,0-.062-.062-.062l-.062-.062h0a.062.062,0,0,1-.062-.062h-.062a.062.062,0,0,0-.062-.062v.309h0V2.5h0V2.433h0V2.31h0c0-.062-.062,0-.062-.062h-.309V1.939h0C857.276,1.939,857.338,1.939,857.338,1.877Zm-15.014,0h.185v.062h0V2H842.2V1.939h0V1.877l.062-.062h.124Zm5.87,0h0l.062.062V2l-.062.062h-.062V1.877l.062-.062Zm-5.314-.309h.185a.062.062,0,0,0,.062.062h.062l.062.062h0l.062.062c0,.062,0,0,.062.062V2h.185l.061.062h.062a.062.062,0,0,0,.062.062h.124a.062.062,0,0,1-.062.062h0a.062.062,0,0,0-.062.062V2.31h0v.062h0l-.062.062H843.5a.062.062,0,0,0-.062-.062v.185h0V2.433h0V2.371h-.618v-.68h0V1.63h0Zm7.414-.185h.185c.062,0,.062,0,.062.062h.062a.062.062,0,0,0,.062.062h.062v.062h0a.062.062,0,0,0,.062.062h.124l.062.062h0a.062.062,0,0,0,.062.062h0a.062.062,0,0,0,.062.062.062.062,0,0,0,.062.062h0a.062.062,0,0,0,.062.062h0V2l.062.062c0,.062,0,0,.062.062v.062a.062.062,0,0,0,.062.062h.062c0,.062,0,0,.062.062v.124l.062.062v.062h0v.062h0V2.8h0a.062.062,0,0,0,.062.062h.185A.062.062,0,0,0,851.9,2.8h.247l.062-.062h0c0-.062.062-.062.062-.124a.062.062,0,0,0,.062-.062h0a.062.062,0,0,0,.062-.062h0V2.433a.062.062,0,0,0,.062-.062c0-.062.062-.062.062-.124h0c.062,0,.062,0,.062-.062h0l.062-.062h.062l.062-.062h.371A.062.062,0,0,0,853.2,2h1.483l.062-.062h.309a.062.062,0,0,0,.062-.062h.433c0-.062.062,0,.062-.062h1.174v.124h0v.124h-.432v.062h0c0,.062-.062.062-.062.124h0V2.31H856.1V2.248h.062V2.186h-.124c0-.062,0-.062-.062-.062V1.877h0c0-.062,0-.062-.062-.062h-.185a.062.062,0,0,1-.062.062v.062h-.123V2h-.185a.062.062,0,0,1-.062.062h0c-.062,0-.062,0-.062.062h-.062c-.062,0-.062,0-.062.062h-.124v.062h-.062V2.31a.062.062,0,0,0-.062.062h.247v.062h0c0,.062,0,.062.062.062a.062.062,0,0,0,.062.062v.062h.124V2.68h.062v.062h.062V2.8h.062a.062.062,0,0,0,.062.062v.062h.062v.062h.062v.062h0l-.062.062a.062.062,0,0,0-.062.062h-.247l-.062-.062V2.928a.061.061,0,0,0-.062-.062h0l-.062-.062h0l-.062-.062h-.371a.062.062,0,0,1-.062.062h0l-.062.062v.062h0v.062l-.062.062H854.5l-.062.062-.062.062h0l-.062.062h0V3.3h0v.124h0a.062.062,0,0,1-.062.062h0a.062.062,0,0,0-.062.062h-.062v.124a.062.062,0,0,0-.062.062h-.309V3.669h0V3.545h0c0-.062,0-.062-.062-.062h0a.062.062,0,0,0-.062-.062h0a.062.062,0,0,1-.062-.062h0a.062.062,0,0,0-.062-.062h0a.062.062,0,0,0-.062-.062h-.37l-.062.062h-.062a.216.216,0,0,0-.062.124h0v.062h0a.062.062,0,0,0-.062.062h0l-.062.062H852.7l-.062.062c-.062,0-.062,0-.062.062h0v.124h-.185a.062.062,0,0,1-.062.062h-.062c-.062,0-.062,0-.062.062h0V4.04h0V4.1h-.123c-.062,0-.062,0-.062.062l-.062.062h0v.062H851.9v.371h-.062V4.6h-.495c0-.062,0-.062-.062-.062h0V4.349h0l.062-.062h.186V4.225l.062-.062h0V3.793h0V3.731h.185a.062.062,0,0,0,.062-.062h.062a.062.062,0,0,0,.062-.062h0V3.484h0V3.422h0V3.237h0a.062.062,0,0,0-.062-.062h0a.062.062,0,0,0-.062-.062V2.989h0V2.928a.062.062,0,0,0-.062-.062h-.185v.062a.062.062,0,0,0-.062.062h0a.062.062,0,0,0-.062.062h0v.062h0v.062h0a.062.062,0,0,1-.062.062V3.3h0a.062.062,0,0,0-.062.062h-.124c-.062,0-.062,0-.062.062h0a.062.062,0,0,0-.062.062h0a.062.062,0,0,0-.062.062h0v.062h-.062v.062h0v.062h0a.062.062,0,0,1-.062.062h-.247c-.062,0-.062,0-.062.062h0v.062h-.185a.062.062,0,0,0-.062.062h-.371V4.04l.062-.062h.309c.062,0,.062,0,.062-.062h.124a.062.062,0,0,1,.062-.062V3.793h0c0-.062,0,0-.062,0h-.062V3.669h0V3.607h0l.062-.062c.062,0,.062,0,.062-.062h.124V3.422h0V3.36h0V3.3h0a.062.062,0,0,0,.062-.062h.124c.062,0,.062,0,.062-.062h0V3.051h0V2.989h.124V2.68h0a.062.062,0,0,1,.062-.062V2.557h0V2.433h0V2.371h0V2.248h0V2.186H851.1l-.062-.062h0V2l.062-.062h0V1.815h0a.062.062,0,0,1-.062-.062h-.185c-.062,0-.062,0-.062.062l-.062.062a.062.062,0,0,0-.062.062h-.185V1.754h0V1.506h0l-.185-.124h0m-2.348-.8h.062V.641L847.946.7h0l-.062.062h0c-.062,0-.062,0-.062.062h-.062L847.7.889h0V.95h0v.062h0v.062h0l-.062.062h0V1.2h-.123c-.062,0-.062,0-.062.062l-.062.062h0l-.124.124h0l-.062.062h0l-.062.062-.062.062h0c-.062,0-.062,0-.062.062,0,0-.062,0,0,.062h0a.062.062,0,0,0-.062.062h0l-.062.062h0a.062.062,0,0,1-.062.062h-.062L846.711,2h0v.062l-.062.062h-.062a.062.062,0,0,0-.062-.062h0A.062.062,0,0,0,846.463,2h0l-.062-.062h0v.309h0V2.186h0V2h0V1.939h0c.062,0,.062,0,.062-.062h0l.062-.062h0V1.692h0V1.63h0a.062.062,0,0,0,.062-.062h0a.062.062,0,0,0,.062-.062h.062l.062-.062h0l.062-.062h.062l.062-.062a.062.062,0,0,0,.062-.062l.062-.062h.371l.062-.062h.247a.062.062,0,0,0,.062-.062h.185V1.012h.247L847.946.58c0,.062-.062.062,0,0h0m.309-.618H849c.062,0,.062,0,.062-.062h.247l.062.062h0a.062.062,0,0,0,.062.062h.68l.062.062h0a.062.062,0,0,0,.062.062h0a.062.062,0,0,1,.062.062h.062a.062.062,0,0,0,.062.062h.124c.062,0,.062.062.124.062h0a.062.062,0,0,1,.062.062h.185a.062.062,0,0,1,.062.062h0a.062.062,0,0,0,.062.062h.062l.062.062h0a.062.062,0,0,0,.061.062c0,.062,0,.062.062.062h0V.827a.062.062,0,0,0,.062.062v.124h0a.062.062,0,0,0,.062.062h0l.062.062v.309h0v.062h0a.062.062,0,0,0,.062.062v.309h0V2h0v.185h0l.062.062h.124l.061-.062h.062a.062.062,0,0,0,.062-.062c.062,0,.062,0,.062-.062h0V2l.062-.062h.062l.062-.062.062-.062h0V1.754c.062,0,0,0,.062-.062h0l.062-.062h0V1.568h0V1.506h.247l.061-.062a.062.062,0,0,0,.062-.062h.062l.062-.062h.556l.062-.062h.927l.062-.062h.185l.062-.062h.062l.062-.062h2.78a.062.062,0,0,0,.062.062h.494a.062.062,0,0,1,.062.062h0l.062.062a.062.062,0,0,0,.062.062h.062l.062.062h0l.062.062.062.062v.062h0l.062.062v.062h0v.062h0v.062h0v.124h0V2c0,.062,0,.062.062.062v.062h0v.062c0,.062,0,0,.062.062v.124h0v.062h0v.124h0V2.68h0v.989a.062.062,0,0,0,.062.062v.062h0v.124h0v.062h0v.309h0v.185h0v.247h0V4.9h0V5.09h0v.062h0v.124h0v.062h0V5.4h0v.124h0a.062.062,0,0,1-.062.062v.062h0v.062h0V5.77h0a.062.062,0,0,1-.062.062v.062h0v.124h0v.062h0v.062h0V6.2h0l-.062.062h0v.124h0v.062h0v.124h0v.062h0V6.82h0v.062h0v.124h0v.062h0s-.062,0,0,.062h0a.062.062,0,0,1-.062.062h0v.124h.247v.062h.185l.062.062v.185l.062.062v.062l.062-.062h.062v.062h-.062v.062h-.062v.062h-.062v.062h.185v.062h0V7.932h0v.062h.062v.062h.062V7.994h0v.062h0V7.994l.062.062h.062v.062h-.062a.062.062,0,0,1-.062.062v.062h0a.062.062,0,0,1,.062-.062h.062V8.118h.062c0,.062,0,.062.062.062h.062v.062h-.062V8.3h-.062a.062.062,0,0,0-.062-.062h0V8.3h-.062v.062l.062.062h0v.062h-.062V8.427h0v.062h-.062V8.55h-.062v.062h.062v.062h-.062v.062h.062l-.062.062h-.062V8.736h0v.124h-.124a.062.062,0,0,0-.062-.062h-.247V8.736h0a.062.062,0,0,0-.062-.062h-.68V8.8h0v.124h0a.062.062,0,0,1-.062.062v.062l-.062.062-.062.062a.062.062,0,0,0-.062.062h0l-.062.062h0v.124h-.247v.062h0v.062l-.062.062h0v.062h0v.124h-.185v.062h0V9.91h0l-.062.062h0l-.062.062-.062.062h0v.062h0v.124h0v.062h0a89.11,89.11,0,0,0-.124.124v.062h0a.062.062,0,0,1-.062.062h0v.124h0v.124h0V10.9h0v.062c-.062,0,0,0-.062.062H856.6l-.062-.062-.062-.062h0a.062.062,0,0,1-.062-.062h-.124a.062.062,0,0,1-.062.062h0v.124h0a.062.062,0,0,0-.062.062h-.123a.062.062,0,0,0-.062.062h0v.062h0v.062h-.062a.062.062,0,0,0-.062.062h0V11.7h0a.062.062,0,0,0-.062.062h0l-.062.062h0l-.062.062h-.062a.062.062,0,0,1-.062.062h0v.124h0v.062h0V12.2h0v.062h0a.062.062,0,0,1-.062.062h.062v.062h-.062v.062h-.062v-.062h-.062v.062h0v-.062H855.3a.062.062,0,0,0-.062.062h-.062v-.062h0v.062h0v.124h0v.062h0v.062h0v.062h0v.062l-.062.062h-.247l-.062-.062h0v-.247h0V12.2h0v-.124l.062-.062h.185v-.062h.247l.062-.062v-.062H855.3v-.062h.062V11.7h0V11.64h.062c.062,0,.062,0,.062-.062h0l.062-.062.062-.062h0l.062-.062h0l.062-.062h0c0-.062,0-.062.062-.062h0l.062-.062.062-.062h0l.062-.062h0v-.062c.062,0,.062,0,.062-.062V10.9h0v-.062h.062l.062-.062h0v-.062h0V10.4h.062v-.062h0V10.4h.062l.062-.062V10.28h-.062v-.062l.062-.062h.247l-.062-.062h0v-.062H856.1V9.971h-.432V9.91h-.185V9.848h0c-.062,0-.062,0-.062.062h0a.062.062,0,0,0-.062.062h0v.185h0l-.062.062a.062.062,0,0,0-.062.062h0v.062h-.062c-.062,0-.062,0-.062.062,0,0-.062,0,0,.062h0v.062h0l-.062.062h0a.062.062,0,0,1-.062.062v.062h0v.124h0V10.9h-.123a.062.062,0,0,0-.062.062c-.062,0-.062,0-.062.062h0v.062h0v.062a.062.062,0,0,0-.062.062h0l-.062.062h0v.185h0v.062h0v.062H854.5a.062.062,0,0,1-.062.062h0l-.062.062-.062.062h0l-.062.062h-.432v.062h-.062v.062h-.062v.062h0l-.062.062c-.062,0-.062,0-.062.062l-.062.062v.062h0a.062.062,0,0,1-.062.062h-.371a.062.062,0,0,1-.062.062h0v.062h0v.309h0v.062h-.618a.062.062,0,0,1-.062.062h0l-.062.062h0V13a.062.062,0,0,0-.062.062c-.062,0-.062,0-.062.062a.062.062,0,0,0-.062.062h0a.062.062,0,0,1-.062.062l-.062.062h0a.062.062,0,0,0-.062.062c-.062,0-.062,0-.062.062h0l-.062.062h-.062a.062.062,0,0,1-.062.062h0a.062.062,0,0,0-.062.062h0v.062a.062.062,0,0,0-.062.062h0l-.062.062h-.062l-.062.062h0l-.062.062a.062.062,0,0,0-.062.062h0v.062h-.062v.062h0v.062h0l-.062.062h0a.062.062,0,0,1-.062.062h0a.062.062,0,0,0-.062.062h-.309V14.3c0-.062,0-.062-.062-.062v-.371h-.062a.062.062,0,0,0-.062-.062v-.185h0V13.37h0v-.124h0V13a.062.062,0,0,0,.062-.062h0l.062-.062h0l.062-.062v-.062h0a.062.062,0,0,0,.062-.062h.124a.062.062,0,0,0,.062-.062h0a.062.062,0,0,1,.062-.062h0a.062.062,0,0,0,.062-.062h.062a.062.062,0,0,0,.062-.062h0l.062-.062a.062.062,0,0,0,.062-.062h0l.062-.062h0l.062-.062c.062,0,.062,0,.062-.062h.185v-.062h0v.247h0v-.062h0a.062.062,0,0,1-.062-.062l-.062-.062h0V12.01h0a.062.062,0,0,0-.062-.062h-.309c-.062,0-.062,0-.062.062,0,0-.062,0,0,.062h0v.062h-.927l-.062.062h0l-.062.062h0l-.062.062h0c-.062.062-.124.062-.124.124h0l-.123.124h0a.062.062,0,0,0-.062.062h0v.062h0v.062h0v.062h0V13h0v.062h0l-.062.062h0v.062h0v.062h0v.062h0v.062l-.062.062h0v.062h0v.062h0v.062h0v.062h0a.062.062,0,0,0-.062.062h0a.062.062,0,0,0-.062.062l-.062.062h-.062v.062h0v.062h0v.062h0a.062.062,0,0,1-.062.062h0a.062.062,0,0,0-.062.062h0V14.3h0v.062h0a.062.062,0,0,1-.062.062h0c-.062,0-.062,0-.062.062a.062.062,0,0,0-.062.062h0v.062h0v.062h0v.741h0v.062h0v.062a.062.062,0,0,0-.062.062h-.247v-.185h0v-.062h0a.062.062,0,0,0,.062-.062h0v-.062h0l.123-.124h0v-.124h0v-.062h0v-.062h0a.062.062,0,0,0,.062-.062l.062-.062h0v-.124h0a.062.062,0,0,1,.062-.062h0v-.062h.062a.061.061,0,0,0,.062-.062h0v-.062l.062-.062h0v-.062h0v-.124h0v-.062h0v-.124h0v-.062h0V13.8a.062.062,0,0,0,.062-.062h0v-.124h0v-.062h0l.062-.062a.062.062,0,0,0,.062-.062h0a.062.062,0,0,1,.062-.062h0v-.062h0v-.062a.062.062,0,0,1-.062-.062h-.371v-.247h0a.062.062,0,0,1,.062-.062v-.124h0v-.124h0v-.062a.062.062,0,0,0,.062-.062h0a.062.062,0,0,1,.062-.062v-.062h0v-.062a.062.062,0,0,0,.062-.062h0V12.2a.062.062,0,0,0,.062-.062h0v-.185h-.495l-.062-.062V11.7h0V11.64h0a.062.062,0,0,0,.062-.062h.062v-.124H847.39v-.185h0a.062.062,0,0,1-.062-.062h-.309v-.062h-.247v-.062h-.494a.062.062,0,0,1-.062-.062l-.062-.062h0V10.9h0v-.062h-.494v-.062h0v-.062h-.309a.062.062,0,0,0-.062.062h-.37a.062.062,0,0,1-.062.062h-.494v-.062c-.062,0-.062,0-.062-.062v-.124h0v-.062h0a.062.062,0,0,1,.062-.062h0l.062-.062h.062c.062,0,0,0,.062-.062h.186l.062-.062h.062c.062,0,0,0,.062-.062h.062c.062,0,.062,0,.062-.062h0l.062-.062h0c.062,0,0,0,.062-.062h.247c.062-.062.124-.124.185-.124h0V9.848h0l-.062-.062h0l-.062-.062V9.539h0V9.477h0V9.353h0V9.292h0V9.23h0l-.062-.062h-.185a.062.062,0,0,0-.062-.062V9.045h0V8.983h0l.062-.062h.124V8.859l-.062-.062h-.123a.062.062,0,0,0-.062-.062V8.612h0V8.55h0V8.365h0a.062.062,0,0,1,.062-.062h0V8.241h0V8.118h0V7.994h0V7.871h0V7.747h0V7.685h0a.062.062,0,0,0,.062-.062h0a.062.062,0,0,0-.062-.062V7.376h0a.062.062,0,0,0-.062-.062h0l-.062-.062h-.185l-.062-.062-.062-.062a.062.062,0,0,0-.062-.062h0a.062.062,0,0,1-.062-.062h-.247l-.062-.062h0a.062.062,0,0,1-.062-.062h-.432V6.141l.062-.062h.123V5.893h-.062V5.646h0V5.584h0V5.523h0V5.461h0l.062-.062h0a.062.062,0,0,0,.062-.062h0V5.275h0V5.152h0V4.9h0V4.781h0V4.658h0V4.534h0V4.472h0V4.41h0V4.225h0a.062.062,0,0,0,.062-.062h.247l.062-.062h0V3.978h0V3.916h0V3.731h0V3.607h0V3.484h0V2.989h-.185c0-.062,0,0-.062-.062V2.8h-.556l-.062-.062L843.5,2.68h-.309l-.062-.062V2.433h.741a.062.062,0,0,0,.062.062v.062a.062.062,0,0,1,.062.062h.124V2.557h0V2.5h0a.062.062,0,0,0-.062-.062h0V2.31l-.062-.062-.062-.062h0a.062.062,0,0,0-.062-.062V1.939h0V1.877h-.062c0-.062,0-.062-.062-.062h0V1.692h.371v.062h0a.062.062,0,0,0,.062.062h.124v.062h0V1.754h0l.062-.062V1.568h0l.062-.062V1.2h0a.062.062,0,0,1,.062-.062h0a.062.062,0,0,0,.062-.062h.062l.062-.062a.062.062,0,0,0,.062-.062h.062V.889l.062-.062h0l.062-.062h.247c.062,0,.062,0,.062-.062h0a.062.062,0,0,0,.062-.062h.865a.062.062,0,0,0,.062-.062h.494c1.483-.556,1.483-.618,1.544-.618Z" transform="translate(-826.322 0.47)"/><path class="a" d="M888.371,9.853h.185a.062.062,0,0,0-.062.062c-.062,0-.062,0-.062.062h-.062v.062h0V10.1a.062.062,0,0,1,.062.062l.062.062h.123v.062h0v.062h-.123v.124h0v.062h-.186v.062a.062.062,0,0,0,.062.062v.124l-.062.062h0l-.062.062h0l-.062.062h0l-.062.062h0v.062h-.062l-.062.062h0l-.062.062a.062.062,0,0,0-.062.062h0l-.061.062h0l-.062.062h-.062v.062h0v.062h0a.062.062,0,0,0-.062.062h0l-.062.062h0v.062h0a.062.062,0,0,1-.062.062h-.124c-.062,0-.062,0-.062.062h-.062v.062h0v.062l-.062.062h0v.062h0v.062h-.062a.062.062,0,0,0-.062.062h0c-.062,0,0,0-.062.062h0V12.2h0v-.124h0v-.124h0c0-.062.062-.062.062-.124h0v-.062h0v-.062h.062v-.062h0v-.124h0V11.4h.062l.062-.062h0l.062-.062h0v-.062h0l.062-.062h0v-.062h0v-.124h0v.309h0v-.062h0v-.062a.062.062,0,0,0,.062-.062c.062,0,0,0,.062-.062h0a.062.062,0,0,1,.062-.062h0V10.9h0l.062-.062a.062.062,0,0,0,.062-.062h0v-.062h0v-.062h0a.062.062,0,0,0,.062-.062h0v-.062h0V10.41h0v-.124a.062.062,0,0,0,.062-.062h.247l.062-.062h0V10.1h.062c.123-.185.123-.247.185-.247h0M883.3,9.483h0l.062.062h0v.062h0v.062h0v.185h0a.062.062,0,0,0-.062.062h0l-.062.062h0V10.1h0v.062h0v.124h0v.062h.062l.062.062h.062v.062h.124a.062.062,0,0,0,.062.062v.185h0v.124h0v.433h0V11.4h0v.062h0v.124h.062a.062.062,0,0,0,.062.062h0v.062h0v.185h-.247a.062.062,0,0,0-.062-.062h0v-.062h0v-.124h0a.062.062,0,0,1-.062-.062h0l-.062-.062a.062.062,0,0,0-.062-.062h-.062V11.4h-.247a.062.062,0,0,0-.062-.062v-.124h-.062l-.062-.062h-.062v-.185h0V10.9h0l.062-.062a.062.062,0,0,0,.062-.062h0a.062.062,0,0,1,.062-.062v-.062h0v-.062h0a.062.062,0,0,1,.062-.062h0l.061-.062V10.41h0l.062-.062h0v-.062h0l.062-.062h.185v-.062h0v-.124h0V9.977c.062,0,.062,0,.062-.062-.124-.433-.124-.433-.062-.433h0m5.314-.124h0c.062.062,0,.062.062.062a.062.062,0,0,0-.062.062h0v.062h0V9.73h0l-.062.062h-.123V9.545h0V9.483h.185l.062-.062Zm-5.19-.124h0c.062,0,.062,0,.062.062v.062h-.124c0-.062,0-.124.062-.124h0m5.19-.247h.124l.062.062h0v.062l-.062.062h-.309V9.05h0l.062-.062.062-.062.062.062h0m-2.41-.124h.185v.062h-.062a.062.062,0,0,0-.062.062h0V9.05l-.062.062h0v.062h0v.185h0v.062a.062.062,0,0,0-.062.062h0v.062h0v.062a.062.062,0,0,0-.062.062h0V9.73h0l-.062.062h0v.062h0v.062h0a.062.062,0,0,0-.062.062h-.124a.062.062,0,0,1-.062.062V10.1h0v.124h0v.062h0v.185h0a.062.062,0,0,0-.062.062h0v.062h0v.247h0v.185h0l-.062.062-.062.062h0v.062h0v.124h0a.062.062,0,0,0,.062.062h.309v.185c-.062,0,0,.062,0,.062h0v.247h.062v.124h-.185a.062.062,0,0,1-.062.062h0a.062.062,0,0,0-.062.062h0V12.2a.062.062,0,0,0-.062.062h0v.062h0v.062h0v.124h0l-.124.124v.124h0v.124h.247v.247h0v.062h0v.185h0V13.5h0v.062h-.185a.062.062,0,0,0-.062-.062h-.062a.062.062,0,0,0-.062-.062h-.062l-.061-.062h0c0-.062,0-.062-.062-.062l-.062-.062h0a.062.062,0,0,1-.062-.062h-.062l-.062-.062a.062.062,0,0,0-.062-.062c0-.062,0-.062-.062-.062h0l-.062-.062h0v-.124h0V12.7h0v-.062h0v-.185l.062-.062h0v-.062h0v-.062h.062V12.2h0v-.124h0v-.062h0v-.062l.062-.062a.062.062,0,0,0,.062-.062h0v-.124h0v-.124c.062,0,.062,0,.062-.062h.062a.062.062,0,0,0,.062-.062h0v-.8h0a.062.062,0,0,1,.062-.062h0v-.062h0v-.062h0V10.41l.185-.185h0a.062.062,0,0,0,.062-.062h0V10.1h0v-.062l.062-.062h.062a.062.062,0,0,0,.062-.062V9.73h0V9.668h.309l.062-.062h0l-.062-.062h0V9.421h0V9.359l.062-.062h0a.062.062,0,0,0,.062-.062h0V9.174h0V9.112h0l.062-.062h.062c-.123-.185-.123-.185-.062-.185h0m.062-.371h.124v.124h0v.062h-.062a.062.062,0,0,0-.062-.062V8.494h0m2.719-.185h.186v.062h-.248l.062-.062h0m-5.129-.062h0l.062.124h-.062V8.247h0m2.6-.062h.123v.062h0v.062h-.123V8.185h0M882.5,8h.185v.124h0v.062l-.061.062h0a.062.062,0,0,0-.062.062h0v.062a.062.062,0,0,0-.062.062h0v.062h0v.185h0v.185h0l-.062.062h0l-.185.185V9.3h-.062a.062.062,0,0,1-.062.062h0v.062h0v.124l-.062.062h-.185V9.73h0v.062h0v.124H881.7a.062.062,0,0,0-.062-.062h0a.062.062,0,0,0-.062-.062V9.545h0V9.483h0a.062.062,0,0,0,.062-.062h0a.062.062,0,0,0,.062-.062h.185V9.3h0V9.174h0l.062-.062h.185a.062.062,0,0,1,.062-.062V8.8h0V8.741h.433V8.618h0V8.494h0V8.371h0V8.309h.123V8.247h-.123V8.185h.123c-.309-.124-.309-.124-.247-.185h0m-.927-.247h.123v.062h-.062v.124h.062V8l-.062.062h-.309V7.938h.062V7.876h0a.479.479,0,0,0,.185-.124h0m7.847-.124h.124a.062.062,0,0,1,.062.062v.062h-.247l.062-.124h0m-2.6-.062h0c.062,0,.062,0,.123.062v.062h0a.062.062,0,0,0-.062.062H886.7V7.691l.124-.124h0m-2.348-.185h.062v.062l-.062-.062h0m-.989,0h.062v.062h-.062V7.382h0M882.007,7.2h.124v.062l-.062.062h-.062V7.2h0m-2.224,0h.062l.062.062v.124a.062.062,0,0,0-.062.062h0v.124a.062.062,0,0,1-.062.062H879.6V7.567h0V7.506l.062-.062h.062V7.382h0V7.32h0a.217.217,0,0,1,.062-.124Zm4.078-.124h.185v.062H883.8V7.073C883.8,7.135,883.8,7.135,883.861,7.073ZM882.316,6.7h.124v.124h0v.062h0l-.062.062h0v.062h0v.062h-.124V6.949h0V6.826h0V6.7h0V6.641c0,.124,0,.124.062.062Zm-.062-.309h.247v.062a.062.062,0,0,1-.062.062h-.247l.062-.124h0m-2.1,0h.185v.062h0v.062h-.309l.123-.124h0m4.819-.062h.062v.124h-.123l.062-.124h0m-3.707-.247h.185v.124h0V6.27h-.123a.062.062,0,0,0-.062-.062V6.146h0c-.062-.062-.062-.062,0-.062h0M891.955,5.9h.062v.124h0v.062h0v.062h-.309V6.084a.062.062,0,0,0,.062-.062h.062C891.893,5.9,891.893,5.9,891.955,5.9ZM878.3,5.4h.123v.062h.309v.309h0l-.062.062h0a.062.062,0,0,0-.062.062h-.124c0-.062,0,0-.062-.062h0V5.775c0-.062,0-.062-.062-.062V5.467h0V5.4a.062.062,0,0,0,.062-.062L878.3,5.4h0m13.9-.185h.185V5.4l-.062.062-.062.062h-.247V5.467h0a.062.062,0,0,0,.062-.062h0V5.343h0V5.281h0V5.219h.124m-7.167-.062h.185v.062h0v.062h-.247c0-.062,0-.062.062-.124h0m7.476-1.112h.309v.124h0v.062h0v.062h0v.062h0v.124a.062.062,0,0,0-.062.062h-.247V4.478h0V4.54h0V4.354h0l.062-.062h0a.062.062,0,0,0,.062-.062.472.472,0,0,0-.124-.185Zm-6.858-.309h.185V3.8h-.185V3.737h0m-5.437-.865h0l.062.062h0V3a.062.062,0,0,0-.062.062h0v.062h0V3.18h0v.062h0v.124h0v.062h0a.062.062,0,0,1-.062.062h0v.062h0c0,.062-.062.062-.062.124h0V3.8h0V3.86h0v.062h0v.062h0v.062h-.062v.124h0v.062c-.062,0-.062,0-.062.062h-.062l-.062.062h0v.062h0a.062.062,0,0,1-.062.062h0V4.54h0V4.6h0v.062h-.062v.309h0V4.91h0V4.725a.062.062,0,0,0,.062-.062h0V4.54l.062-.062h0a.062.062,0,0,0,.062-.062h.062V4.354h.062V4.231h0V4.169h.062c0-.062,0-.062.062-.062h0l.062-.062h.247a.062.062,0,0,0,.062-.062h0V3.675h0V3.366h.185a.062.062,0,0,0,.062-.062h0V3.18h0V3l.062-.062h0C880.154,2.871,880.154,2.933,880.215,2.871Zm12.11-.433h.123v.247h0v.062h0l.062.062h.062V3l.062.062v.062l.062.062v.247h-.433a.062.062,0,0,0-.061.062h-.062a.062.062,0,0,0-.062.062h-.124v.124h0v.062h0a.062.062,0,0,0-.061.062h0l-.062.062h0l-.062.062h0v.062h0a.062.062,0,0,1-.062.062h0c-.062,0,0,0-.062.062h-.062a.062.062,0,0,0-.062.062h-.433v.062h0V4.169h0l.062-.062a.062.062,0,0,0,.062-.062h.062V3.922h0V3.8h0l.062-.062h0a.062.062,0,0,0,.062-.062h0V3.613h0V3.489l.062-.062h.062l.062-.062h0l.062-.062h0V3.119h0V3h.185V2.933h0V2.686h0V2.624l.062-.062h0l.062-.062h0c.309,0,.309,0,.371-.062h0m-12.357-.8h.124V1.7h0v.062h0l-.062.062s-.062,0,0,.062h0v.062h-.062a.062.062,0,0,0-.062.062h0v.062h0v.124h0v.062l-.062.062h0a.062.062,0,0,1-.062.062V2.5a.062.062,0,0,0-.062.062h0l-.062.062s-.062,0,0,.062h0a.062.062,0,0,1-.062.062V2.81a.062.062,0,0,0-.062.062h0a.062.062,0,0,1-.062.062.062.062,0,0,1-.062.062h0a.062.062,0,0,1-.062.062h0c0,.062-.062.062-.062.124h0v.062h0a.062.062,0,0,1-.062.062h0v.062a.062.062,0,0,0-.062.062h0v.062h0c0,.062-.062.062-.062.124h0l-.062.062h0s-.062,0,0,.062h0V3.8h0V3.86h0l-.062.062h0v.062h0v.062h-.309a.062.062,0,0,0-.062-.062v.247h0V4.107h0V3.984h0V3.922h0V3.737h0V3.675h0V3.551h0V3.489h0V3.428h0V3.3h0l.062-.062h0V3.18h0V3.057h0A.062.062,0,0,1,878.733,3v.062h0V2.933h0V2.871h0V2.81h0V2.748h0V2.686l.062-.062h0a.062.062,0,0,1,.062-.062h0l.062-.062h0a.062.062,0,0,0,.062-.062h.062l.062-.062h0l.062-.062h.062l.062-.062h.309c.062,0,.062-.062.124-.062h.062a.062.062,0,0,1,.062-.062h.124c-.124-.494-.062-.494,0-.494Zm9.762-.556h.68a.062.062,0,0,0,.062.062h0a.062.062,0,0,0,.062.062h.433a.062.062,0,0,0,.062.062h.062a.062.062,0,0,0,.062.062l.062.062h0a.062.062,0,0,0,.062.062h.062a.062.062,0,0,0,.062.062V1.7h0a.062.062,0,0,1-.062.062h0a.062.062,0,0,1-.062.062l-.062.062-.062.062h0v.062c-.062,0-.062,0-.062.062h-.247v.124h0V2.13h-.124V2.068H890.6V1.883h0V1.821h0a.062.062,0,0,1,.062-.062V1.7h0V1.636H890.1l-.062.062a.061.061,0,0,0-.062.062h-.124V1.574h-.618a.062.062,0,0,1-.062.062v.124a.062.062,0,0,0-.062.062h0a.062.062,0,0,1-.062.062v.062h0v.062h0v.062h0a.062.062,0,0,1-.062.062h-.062v.124h0v.062h-.061l-.062.062a.062.062,0,0,0-.062.062h-.062V2.5h0v.124h0v.062c-.062,0,0,0-.062.062h0a.062.062,0,0,0-.062.062v.062h0v.062h0a.062.062,0,0,0-.062.062c-.062,0-.062,0-.062.062h0l-.062.062h-.124V3h0V2.933h-.309L887.877,3h0v.062c-.062,0-.062,0-.062.062l-.062.062h-.062c-.062,0-.062,0-.062.062l-.062.062h0a.062.062,0,0,0-.062.062.062.062,0,0,0-.062.062h0c0,.062-.062.062-.062.124v.062h0v.062h0a.062.062,0,0,1-.062.062V3.86h0l-.062.062h0c0,.062,0,.062-.062.062h-.062a.062.062,0,0,0-.062.062h0a.062.062,0,0,1-.062.062v.185a.062.062,0,0,0-.062.062h-.371V4.045c-.062,0,0-.062-.062-.062V3.922h0V3.8a.062.062,0,0,1-.062-.062h0V3.675h0a.062.062,0,0,1-.062-.062h-.556a.062.062,0,0,0-.062.062h-.123l-.062.062h0V3.86h0v.062h-.124l-.062.062h-.062l-.062.062h0l-.062.062h0v.185c-.062,0,0,0-.062.062h-.124c-.062,0-.062,0-.062.062h0l-.062.062h0a.216.216,0,0,1-.123.062h0V4.6h0v.556h0a.062.062,0,0,0-.062.062h-.062v.062h0v.062h0c-.062,0-.062,0-.062.062h-.062V5.59l-.062.062h-.062c-.062,0-.062,0-.062.062l-.062.062h0v.062a.062.062,0,0,0-.062.062h0l-.062.062h0l-.062.062a.062.062,0,0,0-.062.062h-.062v.062h0v.062a.062.062,0,0,0-.062.062H883.8V6.146h0v.185h0V6.27c.062,0,.062,0,.062-.062h0V6.146h0V6.084h.062l.062-.062c.062,0,.062,0,.062-.062h0V5.775h-.062V5.467h0V5.4h0V5.343l.062-.062h.185V5.219c.062,0,.062,0,.062-.062h0l.062-.062h0V5.034h0V4.725h.062V4.416h0a.062.062,0,0,0,.062-.062h.124a.062.062,0,0,1,.062-.062h.062V4.231h0V4.045h0V3.922h0V3.8H884.6a.062.062,0,0,0-.062-.062V3.551h0a.062.062,0,0,0-.062-.062h-.247l-.185.185h0v.062h0V3.8h-.062l-.062.062h0v.062l-.062.062-.062.062h-.062c-.062,0-.062,0-.062.062v.062a.062.062,0,0,0-.062.062h0l-.062.062-.062.062h0v.062h-.062v.062h0V4.54h0l-.062.062s-.062,0,0,.062h0v.062h0v.062l-.062.062h0a.062.062,0,0,0-.062.062h0s-.062,0,0,.062h0v.062h0V5.1h0v.062h0v.062h0v.062h-.432V5.158h.062V5.1h0V4.972a.062.062,0,0,0,.062-.062h.309l.062-.062h.124a.062.062,0,0,1,.062-.062V4.663H883.3V4.6h0V4.54h0c0-.062.062-.062.124-.124h0l.062-.062h0V4.231h0V4.169h0V4.107h0l.062-.062h.062l.062-.062h0V3.8h.123a.062.062,0,0,1,.062-.062h0V3.675h0V3.366h0V3.057h0V3h0l-.062-.062h0c0-.062,0,0-.062-.062h-.062V2.563h0V2.439h-.309a.062.062,0,0,0-.062.062h0a.062.062,0,0,1-.062.062h-.309v.062h0v.062h-.062l.062-.062H883V2.5h0V2.439h.062V2.192h0V2.068h0l.062-.062h.556a.062.062,0,0,1,.062.062h0l.062.062h0l.062.062h0l.062.062h.062l.062.062a.062.062,0,0,0,.062.062h0a.062.062,0,0,0,.062.062h0V2.5h0v.371h0v.185h0l.062.062c.062,0,.062,0,.062.062h.186c.062,0,.062,0,.062-.062h0c0-.062.062-.062.062-.124h0a.062.062,0,0,0,.062-.062h.124l.062-.062h0V2.81h0V2.748h0l.062-.062.062-.062h0V2.563h0V2.5l.062-.062h0l.062-.062h0l.062-.062h0V2.254h0l.062-.062h0a.062.062,0,0,0,.062-.062h0V2.068c.062,0,.062,0,.062-.062h.68c.062,0,0,0,.062-.062h.495l.062-.062h.494V1.821h.371c.062,0,.062,0,.062-.062h.556l.062-.062h.062l.062-.062h.124a.062.062,0,0,0,.062-.062h1.174l.062-.494h0m.062-.68h1.668l.062.062h.556a.062.062,0,0,1,.062.062h0a.062.062,0,0,0,.062.062h.062a.062.062,0,0,0,.062.062h.124V.709h0a.062.062,0,0,1,.062.062.062.062,0,0,0,.062.062l.062.062.062.062V1.08h0v.062h0V1.2a.062.062,0,0,0,.062.062v.062h0a.062.062,0,0,0,.062.062h0V1.45h0v.185h0c0,.062,0,0,.062.062v.185a.062.062,0,0,0,.062.062v.124h0v.124h0v.062h0v.124h0V2.5h0v.124h0v.062h0v.185h0V3h0V3.18h0v.062h0v.185h0v.124h0v.124h0V3.8h0v.124h0v.062h0v.494h0V4.6h0v.062h0v.062h0v.062h0V4.91h0v.062h0v.062h-.062v.124h0v.062h0v.062a.062.062,0,0,0-.062.062h0V5.4h0v.062h0v.062h0V5.59h0v.062h0a.062.062,0,0,0-.062.062h0v.062h0v.062h0V5.9h0a.062.062,0,0,1-.062.062v.062h0v.062h0v.062h0c-.062,0-.062,0-.062.062h0V6.27h0v.062h0v.062h0v.556h-.062a.062.062,0,0,0-.062.062h0v.062h0a.062.062,0,0,0-.062.062h0V7.2h0a.062.062,0,0,0-.062.062h0V7.32h0v.062h0v.062h0v.062h0v.062h0a.062.062,0,0,1-.062.062h0l-.062.062h0l-.062.062h0c0,.062,0,.062-.062.062v.371h0v.062h0c-.062,0-.062,0-.062.062h0v.247h0v.062h0v.062a.062.062,0,0,0-.062.062h0l-.062.062a.062.062,0,0,0-.062.062c-.062,0-.062,0-.062.062h-.062v.062h0V9.05h0v.124h0v.062h0V9.3a.062.062,0,0,0-.062.062h0a.062.062,0,0,0-.062.062.062.062,0,0,1-.062.062v.062h0v.062h-.062l-.062.062H891.4v.124c-.062,0,0,0-.062.062h0v.062h0V10.1h-.185v.062h0v.247h0v.062h0l-.062.062h0c0,.062-.062,0-.062.124h0v.062h0v.062h-.062l-.062.062h0V10.9l-.062.062h0v.062l-.062.062h0l-.062.062h0v.062h0v.124h0V11.4h0v.062h0v.062h0a.062.062,0,0,0-.062.062h-.247a.062.062,0,0,1-.062-.062H890.1l-.062.062v.062h-.124a.062.062,0,0,0-.062.062h0v.062l-.062.062h-.062a.062.062,0,0,1-.062.062h0v.124h0a.062.062,0,0,0-.062.062l-.062.062-.062.062-.062.062h-.062a.062.062,0,0,0-.062.062h-.062v.124a.062.062,0,0,1-.062.062v.062h0l-.062.062h0V12.7l-.062.062h0a.062.062,0,0,0-.062.062h0v.062h0v.062h0a.062.062,0,0,1-.062.062v.124h0a.062.062,0,0,1-.061.062l-.062.062h0v.062h-.186a.062.062,0,0,0-.062.062h-.062l-.062.062h0a.062.062,0,0,0-.062.062h-.062v.865h0v.124h0v.124h0v.062h0v.062l-.062.062-.062.062h0a.062.062,0,0,0-.062.062h-.618l-.062.062h-.185a.062.062,0,0,1-.062-.062h0c0-.062,0-.062-.062-.062h0a.062.062,0,0,0-.062-.062v-.371h0v-.062h0V14.3a.062.062,0,0,0-.062-.062h0l-.062-.062h-.062v-.062h0l-.123-.124H886.7a.062.062,0,0,1-.062-.062h-.247v-.124c0-.062,0-.062-.062-.062a.062.062,0,0,0-.062-.062h-.062a.062.062,0,0,0-.062-.062h0v-.062h0a.062.062,0,0,0-.062-.062c0-.062,0-.062-.062-.062h0v-.309h0V13h-.309a.062.062,0,0,1-.062-.062h0V12.51h0v-.062h0a.062.062,0,0,0-.062-.062h-.124v-.124h0l-.124-.124h-.062v-.062h0v-.124H885.1v-.124l-.062-.062a.062.062,0,0,0-.062-.062h-.062a.062.062,0,0,0-.062-.062h0v-.124c0-.062,0-.062-.062-.062h0c0-.062,0-.062-.062-.062a.062.062,0,0,0-.062-.062h0a.062.062,0,0,0-.062-.062h0a.062.062,0,0,1-.062-.062h0c0-.062,0,0-.062-.062h0a.062.062,0,0,0-.062-.062l-.062-.062h0V10.9h0a.062.062,0,0,1-.062-.062h0l-.062-.062h0v-.062h-.062a.062.062,0,0,0-.062-.062h-.062l-.062-.062h0v-.062h0v-.185h0l-.062-.062h0V9.421h0V9.359h0V9.3h-.062V9.112h-.247V9.05h0l-.062-.062h0l-.062-.062h-.247V8.741h0V8.679h0V8.618h0V8.494c0-.062,0-.062-.062-.062H883V8.309a.062.062,0,0,1-.062-.062h-.062l-.062-.062a.062.062,0,0,0-.062-.062h0V8c0-.062,0-.062-.062-.062h0V7.814h0V7.753H882.5l-.062-.062V7.629h-.062V7.567c0-.062,0-.062-.062-.062h-.062l-.062-.062a.062.062,0,0,0-.062-.062V7.32h0l-.062-.062h0V6.949h.062V6.888a.062.062,0,0,1-.062-.062h-.124l-.062-.062V6.641h0l-.062-.062-.062-.062h0V6.146h0V6.023h-.247V5.961h0c0-.062,0,0-.062-.062,0-.062,0,0-.062-.062V5.775h0V5.714h0V5.59h0V5.528h0V5.467h0V5.343h0V5.219h0V5.1h0V4.849h0V4.416h0V4.231h0V4.107h0V4.045h0a.062.062,0,0,1,.062-.062.062.062,0,0,1,.062-.062V3.737h0V3.675h0V3.489h0V3.3h0V3.242h.124V3.18h0V3.119h0a.062.062,0,0,1,.062-.062h0V2.686h0V2.624h0V2.563h0V2.5h0V2.439h0V2.377h0a.062.062,0,0,0,.062-.062h0V2.254a.062.062,0,0,0,.062-.062h0V2.13h0a.062.062,0,0,0,.062-.062h0l.062-.062h0l.062-.062h.247a.062.062,0,0,1,.062-.062h0l.062-.062h0V1.759h.37c.062,0,.062,0,.062-.062H883c.062,0,0,0,.062-.062h1.05a.062.062,0,0,0,.062-.062h.185c.062,0,0,0,.062-.062h.371a.062.062,0,0,1,.062.062h.741v.062a.062.062,0,0,1,.062.062c.062,0,.062,0,.062.062h.124v.062h.247a.062.062,0,0,0,.062.062h0a.062.062,0,0,0,.062.062h.247v.062h.185v.062h0a.062.062,0,0,0,.062.062h0l.062.062h0a.062.062,0,0,1,.062.062h.124c0,.062,0,0,.062.062l.062.062h0V2.5h0a.062.062,0,0,0,.062.062h.062l.062.062v.062h0V2.81h0c0,.062,0,0,.062.062h0v.062h0V3h.062v.062h0V3.3h0v.124h0v.062a.062.062,0,0,0,.062.062h.124l.062-.062h0V3.428c.062,0,.062,0,.062-.062h0c0-.062.062,0,.062-.062h0V3.242c.062,0,.062,0,.062-.062h0c0-.062.061,0,.061-.062h0V3.057h0V3a.062.062,0,0,0,.062-.062h0V2.871h0V2.81h.309l.062-.062c.062,0,.062,0,.062-.062V2.624h0a.062.062,0,0,0,.062-.062h.433a.062.062,0,0,1,.062-.062h.124c.062,0,.062,0,.062-.062h.124c.062,0,.062,0,.062-.062h.309l.062-.062h.124a.062.062,0,0,0,.062-.062c.062,0,.062,0,.062-.062.062,0,.062,0,.062-.062h.123a.062.062,0,0,0,.062-.062H891.4l.062-.062h.68l.062-.062h.124c.062,0,.062,0,.062-.062h.124c0-.062.062,0,.062-.062h.556L889.792.4h0" transform="translate(-840.117 0.279)"/><path class="a" d="M820.763,11.534h0l.124.062h0a.062.062,0,0,0,.062.062h.123v.062h.062l.062.062h0l.185.185h.062c.062,0,.124,0,.062.062l.062.062h.124v.062a.062.062,0,0,1,.062.062h-.062v-.062l.062.062h.062l.062.062h0l.062.062h0c0,.062.062,0,.062,0h.062c.062,0,.062.062.124.062h0l.062.062h0l.062.062h.123c0,.062.062.062.124.062h.062l.062.062h0a.226.226,0,0,1,.185.062v.062h.185l.062.062h.123c.062,0,0,0,.062.062h0c0,.062-.062.062-.062.124l-.062.062h-.062a.062.062,0,0,1-.062.062h0l-.062.062v.062h0c0,.062-.062,0-.062.062H822.8c0,.062,0,0-.062,0h0a.062.062,0,0,0-.062.062h-.371c0-.062,0,0-.062,0h-.123c0-.062,0,0-.062,0v-.062h0v-.062H822V13.2h0V13.14h-.061s0-.062.061,0h0v-.062c-.061,0,0-.062,0-.062h0v-.062l-.124-.124h-.062V12.77h0v-.062a.062.062,0,0,1-.062-.062v-.124h0v-.062h0V12.4h0v-.062h0v-.062h0a.062.062,0,0,0-.062-.062c-.927-.618-.927-.618-.927-.68h0m2.657-.062h0a.192.192,0,0,0,.124.062h.062c.062.062.062,0,.124.062h.062a.062.062,0,0,1,.062.062h0l.124.124h0l-.062.062v.124a.062.062,0,0,1-.062.062h0v-.062h0a.062.062,0,0,0-.062-.062h0v-.062h0a.062.062,0,0,0-.062-.062v-.062l-.062-.062V11.6a.062.062,0,0,0-.062-.062v-.062h0c-.124.124-.185.062-.185,0h0m-.68-2.163c.062,0,.062.062,0,0h.124l.062.062h0c.062.062.185.124.247.185h0l.062.062.062.062h0a.062.062,0,0,0,.062.062h.124V9.68h.062a.133.133,0,0,0,.124.124.062.062,0,0,0,.062-.062h0V9.68h.062V9.618h.123V9.557h.062V9.495a.062.062,0,0,0,.062.062h.062v.062h0V9.8h0v.247h0c-.062,0,0,.062,0,.062h0v.124h0V10.3h0v.124h0c-.062,0,0,.062,0,.062h-.062c0-.062-.062-.062-.124-.124s-.123-.124-.185-.124l-.062-.062h-.062l-.062-.062v-.062h-.062c-.062,0,0-.062-.062-.062a.062.062,0,0,0-.062-.062h0a.062.062,0,0,0-.062-.062h0V9.8h0V9.742h0c-.062,0-.062-.062-.124-.062a.062.062,0,0,0-.061-.062h0l-.062-.062c-.062-.062-.124-.185-.185-.185a.062.062,0,0,0-.062-.062c0,.062,0,.062-.062,0h0m-2.533-.062h.062l.062.062h-.062c.062.062.123.185.185.247h.062v.062h.062V9.68h0l.061.062h0l.062.062h0v.062h.062v.062h0c.062,0,0,.062,0,.062h0a.216.216,0,0,1,.062.124.062.062,0,0,1,.062.062.062.062,0,0,0,.062.062h0V10.3a.062.062,0,0,1,.062.062l.062.062h.124v.062a.062.062,0,0,0,.062.062h0v.062h.124a.062.062,0,0,1,.062.062h0l.062.062a.062.062,0,0,1,.062.062h0c0-.062.062,0,.062,0h-.062v.062h0l.062.062h0v.124h-.062l-.062-.062-.062-.062c-.062-.062-.124-.062-.185-.124l-.062-.062h0a.062.062,0,0,0-.062-.062h0l-.062-.062c-.062,0-.062-.062-.123-.062h-.186l.062.062h0c-.062,0,0,0,0,.062h0c0-.062,0,0-.062,0h0v-.185h0c-.062,0,0-.062,0-.062h0V10.3a.062.062,0,0,0-.062-.062v-.062h0c-.062,0,0-.062,0-.062h0c-.062,0,0-.062,0-.062h0V9.989h0V9.866h0c-.494-.556-.494-.556-.494-.618h0m2.348-.062h.123l-.062.062h-.062V9.186h0V9.124c.062.124,0,.124,0,.062h0M824.409,9l.062.062h0a.062.062,0,0,1,.062.062h0l.062.062h0v.062h0v.124h0v.124h-.062V9.433h0l-.062-.062c0-.062-.062-.062,0-.062h0V9.248a.062.062,0,0,1-.062-.062V9h0m-4.264-.865h0V8.2h.062c.062,0,.062.062.124.124a.215.215,0,0,1,.062.124h-.247V8.383h0V8.259h0c.062,0,0-.062,0-.124h0V8.074h0Zm4.14-.8h0c.062,0,.062.062.124.062h0l.062.062.062-.062h0c.062,0,.062.062.062.124h0v.062h0l-.185-.185h0V7.332c-.062.062-.124.062-.124,0h0m-5-1.606h0a.215.215,0,0,1,.124.062h.062c0,.062-.062.062-.062.124h0v.062h0a.218.218,0,0,1-.062.124l-.062.062h0V5.911h0V5.726h0m5-.247h0c.062.062.124,0,.124.062h0v.124l.062.062v.124h0s.124,0,.124-.062a.227.227,0,0,0,.185-.062h.062v.062h0a.192.192,0,0,1,.124.062v.062l-.062.124h0V6.1h0a.062.062,0,0,1-.062-.062h-.247l-.247-.247a.062.062,0,0,0-.062-.062l-.309-.309h0l.062-.062h.062V5.293h.062c.062.247.062.247.123.185h0m.865-1.359h0l.062.062h.124l.062.062h.124V4.3h-.062a.062.062,0,0,0-.062.062h-.124l-.062.062h-.062a.133.133,0,0,0-.124-.124.062.062,0,0,0-.062-.062h.062c0-.062.062,0,.062-.062h.062V4.119h0m.927-.865h0a.086.086,0,0,1,0,.124h0V3.44h0V3.5h0l-.062-.062c0-.062,0-.062-.062-.062V3.316l-.062-.062h.062c0,.062.062,0,.124,0M823.729,2.2h0l-.062.062.062.062h-.062l.062.062h0a.062.062,0,0,1,.062.062v.062a.062.062,0,0,0-.062.062h-.062v.062c-.062,0-.062,0-.062.062l.062.062h0c0,.062,0,0-.062,0v.062a.216.216,0,0,0,.124.062h0v.062h-.247a.062.062,0,0,1-.062-.062V2.76h0V2.7a.218.218,0,0,1,.062-.124V2.513h0c0-.062.062-.062.062-.124q.093-.185.185-.185m2.6-.062c.062,0,0,.062,0,0v.124h0l-.062.062V2.266h0c0-.124.062-.062.062-.124h0m.062-.741h0a.217.217,0,0,1,.124.062v.185h0v.124c0,.062-.062.062-.062.124h0v.062a.217.217,0,0,1,.062.124v.062a.062.062,0,0,0-.062.062h0l-.062-.062h0V2.019h0c0-.062,0,0-.062,0V1.957h0a.062.062,0,0,1-.062-.062h0V1.833h-.371c0,.062-.062,0-.062,0h-.185a.062.062,0,0,1-.062.062h-.062c0,.062-.062,0-.062.062h-.123a.062.062,0,0,1-.062.062h-.433c0-.062,0,0-.062,0h0V1.957h0l-.062-.062h-.124c0-.062.062,0,.062-.062h.062a.215.215,0,0,0,.124-.062h.247c.062,0,.062-.062.124-.062h.062c.062,0,.062,0,.124-.062a.227.227,0,0,0,.185-.062h.062c.062,0,.062,0,.062-.062h.062c.062,0,.124,0,.124-.062h.124c.062,0,.062-.062.124-.062h.124l.062-.062c-.062.062,0,.062.062.062m-8.65-.494c.124.062.185.062.309.124V.906h0l.062.062h0l1.05.494a2.508,2.508,0,0,0,.432.124l.062.062c.062,0,.185.062.247.062a.227.227,0,0,1,.185.062h.124c.062,0,.123.062.185.062a.227.227,0,0,1,.185.062c.062,0,.062.062.123.062a.062.062,0,0,1,.062.062.215.215,0,0,1,.062.124h0V2.2h0c0,.062,0,.062.062.124v.124h0l.062.062v.062h0l.062.062V2.76l.062.062h0l.062-.062V2.575c.062,0,0-.062,0-.062h-.062c0-.062.062-.124.062-.185a.062.062,0,0,1,.062.062h0c0-.062.062-.062.062-.124h0V2.2h0a.217.217,0,0,1,.062-.124V2.019l.062-.062a.215.215,0,0,1,.062-.124V1.771a.062.062,0,0,1,.061-.062h0a.062.062,0,0,1-.061-.062V1.586a.215.215,0,0,0,.061-.124.475.475,0,0,1,.185-.124l.062-.062a.062.062,0,0,0,.062-.062l.062-.062h0c0-.062.062-.124.124-.185l.062.062v.062h0v.062a.062.062,0,0,0,.062.062.062.062,0,0,1,.062.062.062.062,0,0,0,.062.062c.062.062.124.062.124.185h0v.062c0,.062.062.124.062.185s.062.062.062.124h0v.062s.062,0,.062.124l.062.062h0V2.2a.214.214,0,0,1,.061.124c0,.062.062.124.062.185h0l-.062-.062h0s0-.062-.061,0a.062.062,0,0,0-.062-.062s0-.062-.062,0c-.062-.062-.062-.124-.123-.124h0l-.062-.062a.062.062,0,0,0-.062-.062h-.124c0,.062-.062,0-.062,0H822c0,.062,0,.062-.062.062h-.124c0,.062-.062,0-.062,0h-.062c-.062,0-.062,0-.062.062h.124c.062.062.062.062.062.124h0l.062.062h0l.062.062h0v.062h0c0,.062-.062,0-.062,0h-.062c0,.062-.062,0-.062,0h-.062v.062c.062,0,0,.062.062.062h-.186c0-.062-.062,0-.062-.062h-.061a.062.062,0,0,0-.062.062h-.062s.124,0,.124.062v.062h-.186a.062.062,0,0,0-.062.062h-.185a.192.192,0,0,0-.124.062l-.062.062H820.7l-.062.062h0v.062a.062.062,0,0,1,.062.062h.062c.062.062.062.124.124.185h0l.062.062h0l.062.062.185.185h.062c.062,0,0,0,.062.062h.247c0,.062.062,0,.062,0h0a.062.062,0,0,1-.062.062h0a.062.062,0,0,1,.062.062v.062h0L821.69,4h0v.062h-.124c0,.062,0,0-.062,0h-.061c0,.062-.062,0-.062,0a.062.062,0,0,0-.062.062h-.062V4.3H821.2v.062h0a.062.062,0,0,1,.062.062h.062V4.49l.062.062h0c.062.062.186.062.186.124a.215.215,0,0,0,.123.062h.062a.062.062,0,0,1-.062.062c.062,0,.062.062.124.062h0l.062.062h0l.124.124s.124.124.185.124h0l.062.062h0c.062,0,0,.062.062.062h0l.062.062h0l-.062-.062h0l-.062-.062c0-.062-.062-.062-.123-.124l-.062-.062A.062.062,0,0,0,822,4.984V4.923h0l-.185-.185h0c-.062,0-.062-.124-.124-.062a.062.062,0,0,0-.062-.062.062.062,0,0,0-.062-.062H821.5c0,.062-.062,0-.062,0h0c-.062,0,0,0,0,.062h-.124c-.062,0,0,0,0,.062,0-.062-.062,0-.062-.062h0l-.062.062h0a.062.062,0,0,0-.062.062h-.124v.124h0l.062.062h0v.124l.062.062h.062l.062.062v.062H821.2l.062.062h.062v.062h0l.062.062h0l.062.062h0v.062h.061V5.6h0a.062.062,0,0,1,.062.062.133.133,0,0,1,.124.124v.062h0c.062.062.062.062.123.062h.062l.062.062h.124v.062h.062c0,.062.062,0,.062.062h.124c0,.062.123.062.062.124h.123v.062h0l-.741,1.483h.062v.062h-.185V7.765h-.062c0-.062,0,0-.062,0l-.062-.062h-.062a.062.062,0,0,0-.062-.062h-.062c0-.062-.062-.062-.124-.062h-.124a.062.062,0,0,0-.062-.062h0a.216.216,0,0,0-.124-.062c0-.062-.062,0-.062-.062h-.185l.061.062h-.061v.062h-.062c0,.062-.062,0-.062.062v.062h-.062V7.456h0c-.062,0,0-.062,0-.062h0c.062,0,0-.062.062-.062h0V7.271h0V7.209h0V7.147h0l-.062.062a.19.19,0,0,1-.062.124.062.062,0,0,0-.062.062h0v.062l-.062.062c-.062.062-.247.124-.247.247v.124a.062.062,0,0,0-.062.062V7.7h-.124a.062.062,0,0,0-.062.062l.062.124V7.95h-.247l-.062.062h0V7.827h0V7.765h0V7.7l.062-.062h0V7.518h0V7.394c-.062,0,0-.062,0-.062h0V7.209a.062.062,0,0,0,.062-.062h.123a.062.062,0,0,0,.062-.062h.124l.062-.062v.124h0a.062.062,0,0,0,.062-.062c.062,0,.062,0,.123-.062a.062.062,0,0,0,.062.062h0V6.962a.857.857,0,0,1,.247-.185l.062.062h0V6.776h0V6.714h0V6.653h0V6.591h0V6.406h0V6.344h0V6.282h0V6.035h0V5.973l.062-.062h.185V5.849h0V5.664l.062-.062h0l.062-.062h0a.062.062,0,0,1,.062-.062H820.7c0-.062-.123-.062-.123-.062h0V5.293l.062-.062h0c0-.062-.062,0-.062-.062h-.433a.062.062,0,0,1-.062-.062h-.309a.062.062,0,0,0-.062-.062h-.741V4.984c0-.062,0-.062-.062-.062a.062.062,0,0,1-.062-.062h0V4.8c0-.062-.062,0-.062,0h-.062c0-.062,0,0-.062,0h-.124V4.675h0V4.614h0V4.49h-.062a.062.062,0,0,1-.062.062h-.062V4.428h0V3.069l-.062-.062V2.945h0V2.884h0a.062.062,0,0,0-.062-.062V2.7h0V2.637h0a.216.216,0,0,0-.062-.124l-.062-.062a.192.192,0,0,1,.062-.124l-.062-.062h0l-.062-.062V2.019l.062-.062h0V1.9h0V1.524l-.062-.062h-.062V1.4c0-.062.062,0,.062-.062a.062.062,0,0,0-.062-.062l-.062-.062c0-.062,0-.062-.062-.062-.124-.124-.124-.185-.124-.247h0m.124-.371a.062.062,0,0,1,.062.062h0l.062.062h0V.721c0,.062,0,.062.062.062h-.062c0-.062-.062-.062-.062-.124h0V.6h0c0,.062,0,0-.062-.062Zm-1.05-.556h.309a.062.062,0,0,1,.062.062h.124a.062.062,0,0,1,.062.062h.927V.165l.062.062a.062.062,0,0,0,.062.062h.185c.062.062.124,0,.185,0h.247L819.1.35h.062l.062.062.062.062.062.062h.123a.062.062,0,0,1,.062.062h.556c.062,0,.062.062.123.062a.062.062,0,0,1,.062.062h.618c0-.062.062-.062.124-.124h.185V.412a.214.214,0,0,0,.062-.124h0V.227a.9.9,0,0,1,.124-.185c0-.062.062-.062.062-.124h.185c.062,0,.062,0,.062-.062h0V-.206h0l-.062-.062.062-.124.062-.062V-.515c0-.062.062-.062.062-.124V-.7h.062v.247h.062c.062,0,0,.062.062.062h.124a.062.062,0,0,1,.062-.062h0a.062.062,0,0,0-.062-.062h.062a.062.062,0,0,0,.062.062v.062h0l.062.062v.062h0v.062h0v.124l-.062.062V.041c0,.062.124.062.185.062,0,0,0,.062.062,0a.062.062,0,0,0,.062.062h0a.062.062,0,0,0,.062.062V.289h0V.412a.062.062,0,0,0,.061.062V.536h0V.6a.062.062,0,0,0,.062.062h.062l.062.062h0c0,.062.062.062.062.124s.062.062.062.124h.124l.061-.062h.185c.062,0,.062,0,.062-.062h.371l.062-.062h.062c.062,0,.062,0,.062-.062l.062-.062h.371c.062,0,.062,0,.062-.062h.247a.062.062,0,0,0,.062-.062h.371l.123-.124h.371a.062.062,0,0,0,.062-.062h1.174V.412a.062.062,0,0,1-.062.062h0V.536h0V.6h0V.721h0c0,.062-.062.124-.062.185h0c0,.062-.062.062-.062.124v.124h0v.062h0v.124h0v.124c-.062,0,0,.124,0,.124h0V1.71a.227.227,0,0,1-.062.185h-.062a.062.062,0,0,0-.062.062h0l.062.062V2.08h0a.062.062,0,0,1-.062.062c-.062,0,0,.124,0,.124v.124c0,.062,0,.062-.062.124l-.062.062V2.7c-.062.062-.062.062-.062.124v.062h0c0,.124-.062.185-.062.247v.124l-.062.062c-.062.062,0,.124,0,.185s0,.062-.062.124h.123V3.81c0,.062-.062.062-.062.124h0v.124h0v.124h0a.062.062,0,0,1-.062.062V4.3a.215.215,0,0,0-.062.124h0l-.062.062h-.371l-.062.062v.062h0a.062.062,0,0,0-.062.062h-.061a.191.191,0,0,1-.123.062h-.062c-.062,0-.124,0-.124.062h-.062c-.062,0-.062,0-.124.062h0v.124h0v.124h.124V5.17h0v.124h0v.062a.062.062,0,0,0,.062.062v.062h0v.062h0v.124a.062.062,0,0,0,.062.062v.124h0v.124h0v.062h0v.309h0v.062h0v.062h0v.185a.062.062,0,0,0,.062.062v.062h0v.185h0v.124h0v.185h0v.124a.062.062,0,0,1-.062.062h0l-.062.062h0v.062a.062.062,0,0,1-.062.062.192.192,0,0,0-.124.062v.062h0v.062l.062.062V7.95s0,.062.062,0h0v.062a.062.062,0,0,0,.062.062h0v.062l-.062.062h0v.062h0v.062a.062.062,0,0,1-.062.062h.062l-.062.062h0v.062h-.062l.062.062-.062.062h.062v.124h0v.062h0v.062a.062.062,0,0,1-.062.062h0v.124a.062.062,0,0,0,.062.062v.062h0V9.31h0l.062.062h0v.124l.062.062v.062h0v.124h0v.185h0v.062h0v.062h0v.062h0v.124a.062.062,0,0,1-.062.062h0v.062a.062.062,0,0,1-.062.062h0v.062a.062.062,0,0,1-.062.062.216.216,0,0,1-.062.124h0v.124a.062.062,0,0,1-.062.062h0v.185a.062.062,0,0,1-.062.062h0v.062h0v.124h0a.062.062,0,0,1-.062.062v.062h0V11.6c-.062.062-.062.124-.124.185l-.062.062V11.9l-.062.062v.062h0v.062h0v.062h0v.062h0l-.062.062h0v.062l-.062.062-.185.185-.062.062-.062.062-.062.062h0l-.062.062h-.062l-.062.062c-.062.062-.124.185-.185.185a.191.191,0,0,1-.124.062.217.217,0,0,0-.124.062c-.062,0-.062.062-.124.062h-.062l-.062.062-.062.062h-.124l-.062.062c-.062,0-.062,0-.062.062h-.062a.215.215,0,0,0-.123.062h-.062a.215.215,0,0,1-.124-.062h-.062c-.062,0-.062-.062-.124-.062a.216.216,0,0,0-.123-.062L822,13.264h0c-.062-.062-.124-.124-.185-.124a.216.216,0,0,1-.124-.062l-.124-.124c-.062-.062-.124-.062-.185-.124l-.124-.124v-.062h0c-.062-.124-.185-.124-.185-.185l-.062-.062-.185-.185-.062-.062-.124-.124a.062.062,0,0,0-.062-.062l-.062-.124-.062-.062-.123-.185-.062-.062h0v-.062c0-.062-.062-.062-.062-.124l-.062-.062h0a.193.193,0,0,1-.062-.124l-.062-.062h0l-.062-.062c0-.062-.062-.062-.062-.124h0a.215.215,0,0,1-.062-.124h0a.062.062,0,0,0-.062-.062h0c0-.062-.062-.062-.062-.124h0v-.062c0-.062,0-.062-.062-.062h0l-.062-.062a.062.062,0,0,0-.062-.062h0l-.062-.062a.062.062,0,0,0-.062-.062h0v-.185h0c0-.062-.062-.124-.062-.247h0c0-.062-.062-.062-.062-.124V9.618h0V9.557h0a.228.228,0,0,1-.062-.185h0c.062,0,0,0,0-.062h0c0-.062,0-.062-.061-.124a.062.062,0,0,0-.062-.062h0V9.062A.062.062,0,0,0,819.034,9h0V8.939h0c.062,0,0,0,0-.062h0V8.815h0V8.753h0V8.692h0V8.383c.062,0,0,0,0-.062h0V8.259h0l.062-.124h0c0-.062,0-.062-.062-.124h0c.062,0,0,0,0-.062h0V7.888h0V7.827h0V7.765a.189.189,0,0,1,.062-.124h0V7.579h0V7.518h0V7.394h0V7.332h0V7.271h0V7.147h0V7.085a.062.062,0,0,0-.062-.062h0V6.962h0V6.9c0-.062,0-.062.062-.124h0V6.653h0V6.591h0V6.529a.062.062,0,0,1,.062-.062h0V6.406a.062.062,0,0,0-.062-.062h0V5.417h-.062V5.232h0V5.17h0l.062-.062h0a1.147,1.147,0,0,0-.433-.124c-.062,0-.123-.062-.185-.062a.469.469,0,0,1-.247-.124h-.062c.062-.124,0-.124-.123-.185-.062-.062-.123-.062-.247-.062-.062-.062-.123-.062-.123-.124V4.367h0a.217.217,0,0,1-.062-.124V4.181c0-.062-.062-.124-.062-.185V3.934c-.062,0-.062-.062-.062-.124h0V3.687h0l-.062-.062h0V3.563a.216.216,0,0,1-.061-.124h0V3.254a.062.062,0,0,0-.062-.062h0V3.131a.629.629,0,0,1-.062-.185h0V2.884l-.062-.062h0V2.76h0l-.062-.062h0c0-.062-.061-.062-.061-.124V2.513a.612.612,0,0,1-.062-.185V2.266l-.062-.062V2.019l-.062-.124h0a.216.216,0,0,0-.062-.124V1.71h0l-.062-.124V1.524a.19.19,0,0,0-.062-.124V1.277h0a.215.215,0,0,1-.062-.124c.062-.062,0-.062,0-.062h0l-.062-.062h0V.906L816.5.845V.783h.062A.216.216,0,0,1,816.5.659h0c.309-.618.309-.618.309-.68" transform="translate(-816.501 0.7)"/></g></svg>