<svg xmlns="http://www.w3.org/2000/svg" width="13.224" height="23.778" viewBox="0 0 13.224 23.778"><defs><style>.a{stroke:#000;}</style></defs><g transform="translate(0.5 0.5)"><path class="a" d="M14.173-12.9a.729.729,0,0,1,.534-.223.729.729,0,0,1,.534.223.442.442,0,0,1,.134.156.818.818,0,0,1,.067.189.921.921,0,0,1,.022.2.778.778,0,0,1-.022.189.87.87,0,0,1-.067.178.7.7,0,0,1-.134.178L5.088-1.658,15.108,8.361A.744.744,0,0,1,15.3,8.7a.735.735,0,0,1,0,.4.769.769,0,0,1-1.28.334L3.463-1.124a.729.729,0,0,1-.223-.534.729.729,0,0,1,.223-.534Z" transform="translate(-3.24 13.125)"/></g></svg>