<svg xmlns="http://www.w3.org/2000/svg" width="48.93" height="45.403" viewBox="0 0 48.93 45.403"><defs><style>.a{fill:#77be82;}.b{fill:#6baa75;}.c{fill:#ff9d53;}.d{fill:#fac079;}.e{fill:#ef7a39;}.f{fill:#71b47c;}</style></defs><g transform="translate(0 0)"><g transform="translate(1.003 1.075)"><path class="a" d="M827.252,622.054a14.037,14.037,0,0,0,1.631,1.215,12.683,12.683,0,0,0,8.1,2,.842.842,0,0,0,.636-1.172,14.243,14.243,0,0,0-4.849-6.215l-4.875.682Z" transform="translate(-800.729 -585.266)"/><path class="b" d="M754.153,622.054a14.045,14.045,0,0,1-1.631,1.215,12.684,12.684,0,0,1-8.1,2,.842.842,0,0,1-.636-1.172,14.244,14.244,0,0,1,4.85-6.215l4.875.682Z" transform="translate(-733.746 -585.266)"/><path class="c" d="M706.65,514.773a.8.8,0,0,0-.917.889,20.4,20.4,0,0,0,4.668,11.659,17.758,17.758,0,0,0,11.219,6.4,20.4,20.4,0,0,0-4.711-12.706,17.906,17.906,0,0,0-10.258-6.244Z" transform="translate(-703.281 -504.16)"/><path class="c" d="M694.035,556.6a.843.843,0,0,0-.611,1.155,19.214,19.214,0,0,0,7.834,9.484,17.011,17.011,0,0,0,12.519,2.272,19.257,19.257,0,0,0-8.182-10.462,17.1,17.1,0,0,0-11.56-2.448Z" transform="translate(-693.363 -536.925)"/><path class="c" d="M711.45,568.2a16.648,16.648,0,0,1-8.71-2.519,18.47,18.47,0,0,1-7.456-9.023c-.419.031-.836.071-1.248.134a.843.843,0,0,0-.612,1.155,19.214,19.214,0,0,0,7.835,9.483,17.011,17.011,0,0,0,12.518,2.272c-.176-.542-.378-1.076-.6-1.6a15.8,15.8,0,0,1-1.726.1Z" transform="translate(-693.363 -537.117)"/><g transform="translate(16.567)"><path class="d" d="M852.392,514.773a.8.8,0,0,1,.918.889,20.4,20.4,0,0,1-4.668,11.659,17.758,17.758,0,0,1-11.219,6.4,20.4,20.4,0,0,1,4.711-12.706,17.907,17.907,0,0,1,10.258-6.244Z" transform="translate(-825.452 -504.16)"/><path class="d" d="M846.69,556.6a.843.843,0,0,1,.611,1.155,19.214,19.214,0,0,1-7.835,9.484,17.011,17.011,0,0,1-12.518,2.272,19.257,19.257,0,0,1,8.182-10.462,17.1,17.1,0,0,1,11.56-2.448Z" transform="translate(-817.052 -536.925)"/><path class="d" d="M783.418,465.3c-3.986,3.314-6.424,7.674-6.424,12.465l6.882,10.275,6.907-10.275c0-4.791-2.439-9.151-6.425-12.465a.732.732,0,0,0-.94,0Z" transform="translate(-776.994 -465.124)"/></g><path class="c" d="M785.489,466.31c-.363-.347-.737-.688-1.13-1.015a.732.732,0,0,0-.94,0c-3.986,3.314-6.424,7.674-6.424,12.465l.542.81.819-.025.717-.022.027-.773c.148-4.215,2.366-8.238,6.247-11.328Z" transform="translate(-760.427 -465.124)"/><path class="c" d="M754.855,497.467h0a18.119,18.119,0,0,0-10.492-9.542.757.757,0,0,0-.967.582,20.62,20.62,0,0,0,1.007,12.57l7.513,4.861Z" transform="translate(-733.05 -483.026)"/><path class="c" d="M744.4,501.076l1.727,1.117,1.134.185-.582-1.385a19.649,19.649,0,0,1-.844-12.473c-.484-.218-.974-.421-1.474-.6a.757.757,0,0,0-.967.582A20.617,20.617,0,0,0,744.4,501.076Z" transform="translate(-733.05 -483.025)"/><path class="c" d="M820.828,497.467h0a18.119,18.119,0,0,1,10.492-9.542.757.757,0,0,1,.967.582,20.621,20.621,0,0,1-1.007,12.57l-7.513,4.861Z" transform="translate(-795.577 -483.026)"/><path class="c" d="M829.922,539.2l1.138,3.278,7.513-4.861a19.588,19.588,0,0,0,1.04-3.268l-.352.062a17.638,17.638,0,0,0-9.338,4.789Z" transform="translate(-802.87 -519.57)"/><path class="c" d="M783.418,522.866c-3.986,3.314-6.424,7.674-6.424,12.465l6.882,10.275,6.907-10.275c0-4.791-2.439-9.151-6.425-12.465a.732.732,0,0,0-.94,0Z" transform="translate(-760.427 -510.402)"/><path class="e" d="M785.571,523.959c-.388-.375-.789-.741-1.213-1.093a.732.732,0,0,0-.94,0c-3.986,3.314-6.424,7.674-6.424,12.465l.732,1.093.32.1.96.3.022-1.078c.089-4.338,2.363-8.487,6.4-11.682Z" transform="translate(-760.427 -510.402)"/><path class="f" d="M792.462,627.527a12.308,12.308,0,0,0,3.3,8.324.717.717,0,0,0,1.067,0,12.308,12.308,0,0,0,3.3-8.324Z" transform="translate(-772.83 -592.849)"/><path class="c" d="M827.786,544.854a.8.8,0,0,1,.763.823,18.127,18.127,0,0,1-4.609,12.4,15.6,15.6,0,0,1-12.257,4.955,18.307,18.307,0,0,1,4.6-13.212,15.532,15.532,0,0,1,11.506-4.968Z" transform="translate(-788.234 -527.829)"/><path class="e" d="M727.359,544.854a.8.8,0,0,0-.763.823,18.126,18.126,0,0,0,4.609,12.4,15.6,15.6,0,0,0,12.257,4.955,18.306,18.306,0,0,0-4.6-13.212,15.532,15.532,0,0,0-11.506-4.968Z" transform="translate(-720.012 -527.829)"/></g><path d="M737.14,480.736a.724.724,0,0,0-.476-.383,16.952,16.952,0,0,0-4.028-.446,21.307,21.307,0,0,0,1.851-8.273.8.8,0,0,0-.236-.588.685.685,0,0,0-.567-.194,17.642,17.642,0,0,0-6.471,2.21,20.986,20.986,0,0,0-.856-7.483.711.711,0,0,0-.852-.513,17.639,17.639,0,0,0-6.222,3.032,19.263,19.263,0,0,0-6.1-7.86.676.676,0,0,0-.846,0,19.271,19.271,0,0,0-6.1,7.858,17.535,17.535,0,0,0-6.222-3.03.711.711,0,0,0-.852.513,20.988,20.988,0,0,0-.856,7.483,17.641,17.641,0,0,0-6.471-2.21.685.685,0,0,0-.567.194.8.8,0,0,0-.236.588,21.313,21.313,0,0,0,1.851,8.273,16.953,16.953,0,0,0-4.028.446.725.725,0,0,0-.476.383.826.826,0,0,0-.044.639,19.934,19.934,0,0,0,8.669,10.728,18.45,18.45,0,0,0,5.312,2.128,13.538,13.538,0,0,0-4.037,6.577.825.825,0,0,0,.071.611.723.723,0,0,0,.463.361,11.6,11.6,0,0,0,9-1.549c.3-.19.589-.4.871-.611a12.6,12.6,0,0,0,3.61,5.686.678.678,0,0,0,.931,0,12.6,12.6,0,0,0,3.612-5.691c.284.218.577.424.877.615a11.6,11.6,0,0,0,9,1.549.723.723,0,0,0,.463-.361.827.827,0,0,0,.071-.611,13.54,13.54,0,0,0-4.039-6.578,18.449,18.449,0,0,0,5.307-2.127,19.937,19.937,0,0,0,8.669-10.728.826.826,0,0,0-.044-.639Zm-10.156-5.756a16.527,16.527,0,0,1,6.032-2.461A19.7,19.7,0,0,1,730.981,480c-.221.023-.443.052-.665.084q.049-.944.017-1.912a.746.746,0,0,0-.69-.744,17.591,17.591,0,0,0-3.31.18,18.5,18.5,0,0,0,.651-2.63Zm-14.22-13.153a17.345,17.345,0,0,1,5.347,7.257c-.2.186-.4.376-.6.572a.816.816,0,0,0-.029,1.092.681.681,0,0,0,1.013.032,15.937,15.937,0,0,1,6.691-4.026,18.2,18.2,0,0,1-.512,11.191,16,16,0,0,0-5.4,2.523,18.078,18.078,0,0,0-3.655-5.619c.047-.1.094-.19.143-.283.232-.448.486-.887.756-1.307a.811.811,0,0,0-.18-1.075.685.685,0,0,0-1,.194c-.289.448-.56.917-.809,1.395q-.643-.592-1.347-1.148a.675.675,0,0,0-.846,0q-.7.555-1.347,1.148a17.116,17.116,0,0,0-3.575-4.688,17.347,17.347,0,0,1,5.345-7.257Zm-12.426,4.927a15.642,15.642,0,0,1,9.426,7.811c.048.094.1.188.143.283a18.078,18.078,0,0,0-3.656,5.619,15.993,15.993,0,0,0-5.4-2.524,18.2,18.2,0,0,1-.512-11.19Zm-7.826,5.765a16.528,16.528,0,0,1,6.032,2.461,18.454,18.454,0,0,0,.651,2.629,17.608,17.608,0,0,0-3.31-.179.746.746,0,0,0-.69.744q-.033.966.017,1.912c-.222-.032-.443-.061-.665-.085A19.7,19.7,0,0,1,692.512,472.519Zm5.19,18.229a18.385,18.385,0,0,1-7.7-9.057,15.756,15.756,0,0,1,5.348-.023A18.393,18.393,0,0,0,699.9,491.85,17.547,17.547,0,0,1,697.7,490.748Zm9.385,8.153a10.292,10.292,0,0,1-7.171,1.525,11.8,11.8,0,0,1,3.859-5.448,16.074,16.074,0,0,0,4.448,1.746,11.442,11.442,0,0,0,.108,1.253,11.1,11.1,0,0,1-1.244.924Zm-6.073-8.033a17.33,17.33,0,0,1-4.4-11.906,14.853,14.853,0,0,1,11.046,4.741,15.552,15.552,0,0,1,1.571,2,.684.684,0,0,0,1,.181.812.812,0,0,0,.168-1.077,17.081,17.081,0,0,0-1.725-2.2,16.529,16.529,0,0,0-1.234-1.2,17.373,17.373,0,0,1,5.324-7.2,17.373,17.373,0,0,1,5.325,7.2,16.478,16.478,0,0,0-1.236,1.2,17.825,17.825,0,0,0-4.088,7.465,19.194,19.194,0,0,0-.733-2.163.7.7,0,0,0-.944-.4.8.8,0,0,0-.368,1.018,18.66,18.66,0,0,1,1.341,7.075,14.854,14.854,0,0,1-11.046-4.742Zm11.75,12.812a10.525,10.525,0,0,1-3.093-6.691,17.476,17.476,0,0,0,2.406.166h1.374a17.471,17.471,0,0,0,2.406-.166A10.522,10.522,0,0,1,712.764,503.68Zm12.855-3.254a10.291,10.291,0,0,1-7.171-1.525,11.129,11.129,0,0,1-1.25-.929,11.448,11.448,0,0,0,.107-1.248,16.075,16.075,0,0,0,4.452-1.748,11.8,11.8,0,0,1,3.862,5.451Zm-12.151-4.817a17.33,17.33,0,0,1,4.4-11.907,14.852,14.852,0,0,1,11.046-4.741,17.33,17.33,0,0,1-4.4,11.906A14.852,14.852,0,0,1,713.468,495.61Zm14.358-4.862a17.553,17.553,0,0,1-2.2,1.1,18.394,18.394,0,0,0,4.549-10.182,15.749,15.749,0,0,1,5.348.023,18.384,18.384,0,0,1-7.7,9.057Z" transform="translate(-688.299 -460.089)"/></g></svg>