<svg xmlns="http://www.w3.org/2000/svg" width="52.741" height="40.219" viewBox="0 0 52.741 40.219"><defs><style>.a{fill:#ad9b74;}.b{fill:#938564;}.c{fill:#c6b184;}</style></defs><path class="a" d="M532.75,545.3a4.524,4.524,0,0,1-8.792.005.306.306,0,0,0-.549-.1,5.65,5.65,0,1,0,9.342.1Z" transform="translate(-481.772 -530.547)"/><path class="b" d="M547.281,546.144a4.525,4.525,0,0,1-2.461,3.022,5.649,5.649,0,0,1-3.945,5.491,5.648,5.648,0,0,0,6.406-8.514Z" transform="translate(-496.303 -531.393)"/><path class="c" d="M392.666,491.319c-3.892-9.863-17.623-13.686-30.669-8.538-11.57,4.566-18.714,14.653-17.467,23.757a.6.6,0,0,0,.847.47,25.8,25.8,0,0,1,18.7-1.3.257.257,0,0,0,.257-.432c-2.482-2.29-3.717-5.2-3.026-7.95a6.292,6.292,0,0,1,.355-1.026,13.79,13.79,0,0,0,5.471,4.479.369.369,0,0,0,.509-.211,16.217,16.217,0,0,1,7.126-8.415c6.713-4.017,14.679-3.054,17.794,2.151a8.733,8.733,0,0,1,1.128,3.113,14.98,14.98,0,0,0-1.023-6.1Z" transform="translate(-341.773 -479.759)"/><path class="c" d="M395.2,509.911a14.845,14.845,0,0,0-4.356-11.166c-7.5-3.937-18.925-3.009-29.2,3.14-7.638,4.57-13.032,11.063-15.331,17.574a.6.6,0,0,0,.576.044,25.8,25.8,0,0,1,18.7-1.3.256.256,0,0,0,.259-.43c-2.483-2.291-3.72-5.2-3.029-7.953a6.194,6.194,0,0,1,.211-.675.206.206,0,0,1,.359-.048,14,14,0,0,0,5.255,4.176.369.369,0,0,0,.51-.212,16.219,16.219,0,0,1,7.126-8.413c6.713-4.017,14.679-3.053,17.794,2.152A8.736,8.736,0,0,1,395.2,509.911Z" transform="translate(-343.288 -492.254)"/><path class="c" d="M480.454,491.322C477.18,483.025,466.946,479,456.013,481c7.9.011,14.8,3.254,18.042,8.989a9.567,9.567,0,0,1,6.294,4.318,8.732,8.732,0,0,1,1.128,3.113,14.979,14.979,0,0,0-1.023-6.1Z" transform="translate(-429.561 -479.762)"/><path class="a" d="M524.084,503.92a14.965,14.965,0,0,0-3.333-5.069,22.041,22.041,0,0,0-9.262-2.338,16.212,16.212,0,0,1,6.2,6.073,9.569,9.569,0,0,1,6.295,4.318,8.733,8.733,0,0,1,1.128,3.113A14.98,14.98,0,0,0,524.084,503.92Z" transform="translate(-473.192 -492.36)"/><path d="M357.157,520.622a.773.773,0,0,1-.652-1.188A38.507,38.507,0,0,1,369.29,507.27a41.791,41.791,0,0,1,6.536-3.182.773.773,0,1,1,.552,1.445,40.242,40.242,0,0,0-6.294,3.064,36.958,36.958,0,0,0-12.274,11.666A.772.772,0,0,1,357.157,520.622Z" transform="translate(-351.207 -498.278)"/><path d="M384.866,494.756a15.708,15.708,0,0,0-1.074-6.4,15.541,15.541,0,0,0-.686-1.5c-2.207-4.226-6.3-7.335-11.7-8.838a30.544,30.544,0,0,0-19.213,1.383c-11.69,4.613-19.221,14.927-17.907,24.524a1.372,1.372,0,0,0,.115.39,32.886,32.886,0,0,0-2.265,12.164.775.775,0,0,0,1.55.041,31.651,31.651,0,0,1,2.074-11.413,1.371,1.371,0,0,0,.454-.113A25.06,25.06,0,0,1,354.3,503.73,1.03,1.03,0,0,0,355.333,502c-2.229-2.057-3.263-4.492-2.883-6.747a15.221,15.221,0,0,0,4.818,3.527,1.141,1.141,0,0,0,1.573-.658,15.166,15.166,0,0,1,5.6-7.212,17.681,17.681,0,0,1,3.283-1.845c5.591-2.387,11.578-1.411,14.3,2.515q.145.209.277.43l0,.015a3.74,3.74,0,0,1-7.155-.374,1.079,1.079,0,0,0-1.934-.361,6.384,6.384,0,0,0-1.064,4.657.773.773,0,1,0,1.527-.246,4.767,4.767,0,0,1,.167-2.232q.071-.222.162-.434a5.286,5.286,0,0,0,9.094.778,8.139,8.139,0,0,1,.239,1.038v0a4.876,4.876,0,0,1-.287,1.733,4.857,4.857,0,0,1-7.736,2.056.773.773,0,1,0-1.01,1.172,6.324,6.324,0,0,0,1.8,1.089,6.364,6.364,0,0,0,5.01-.114,6.382,6.382,0,0,0,3.76-6.031v0Zm-9.335-8.425a17.317,17.317,0,0,0-11.244,2.813,17.1,17.1,0,0,0-6.754,8.04q-.375-.193-.735-.4a12.515,12.515,0,0,1-4.018-3.607.774.774,0,0,0-.708-.333c-.688.063-.92,1.152-1.034,1.605a7.724,7.724,0,0,0,.764,5.523,10.767,10.767,0,0,0,1.16,1.758q-.254-.063-.51-.119a27.18,27.18,0,0,0-16.462,1.8l-.2.086a18.255,18.255,0,0,1,3.806-12.763,29.892,29.892,0,0,1,13.165-9.887,31.183,31.183,0,0,1,11.391-2.237,25.511,25.511,0,0,1,6.84.906,20.877,20.877,0,0,1,3.958,1.536,25.576,25.576,0,0,0-3.84-.538,32.589,32.589,0,0,0-10.436,1.1.773.773,0,0,0,.4,1.5c6.754-1.784,13.384-1.379,18.213,1.111a14.12,14.12,0,0,1,3.071,4.711q.2.5.354,1.009A10.95,10.95,0,0,0,375.532,486.331Z" transform="translate(-332.137 -477.064)"/></svg>