<svg xmlns="http://www.w3.org/2000/svg" width="42.321" height="39.164" viewBox="0 0 42.321 39.164"><defs><style>.a{fill:#e8e9ea;}.b{fill:#d0d1d2;}.c{fill:#f2f3f3;}.d{fill:#f3be0f;}.e{fill:#d0a40f;}.f{fill:#4a5359;}</style></defs><g transform="translate(0 0)"><path class="a" d="M1081.872,519.557h0a3.542,3.542,0,0,1-3.542-3.541V488.528a1.516,1.516,0,0,1,1.516-1.516h13.517v32.545Z" transform="translate(-1077.71 -481.013)"/><path class="b" d="M1091.751,487.011h.543v29a3.541,3.541,0,0,1-2.043,3.209,3.531,3.531,0,0,0,1.5.333h11.491V487.011Z" transform="translate(-1087.589 -481.012)"/><path class="c" d="M1104.064,455.618a1.516,1.516,0,0,0-1.516,1.516V490a3.543,3.543,0,0,1-3.543,3.543h34a3.543,3.543,0,0,0,3.543-3.543V457.134a1.516,1.516,0,0,0-1.516-1.516Z" transform="translate(-1094.843 -454.998)"/><path class="d" d="M1158.388,543.437h-8.5a.847.847,0,0,1-.847-.847v-8.5a.847.847,0,0,1,.847-.847h8.5a.847.847,0,0,1,.847.847v8.5A.847.847,0,0,1,1158.388,543.437Z" transform="translate(-1136.304 -519.321)"/><path class="e" d="M1151.519,542.59v-8.5a.847.847,0,0,1,.847-.847h-2.479a.847.847,0,0,0-.847.847v8.5a.847.847,0,0,0,.847.847h2.479A.847.847,0,0,1,1151.519,542.59Z" transform="translate(-1136.304 -519.321)"/><path d="M1114.9,452h-30.963a2.139,2.139,0,0,0-2.136,2.136v3.243h-4.949a2.138,2.138,0,0,0-2.136,2.136V487a4.167,4.167,0,0,0,4.132,4.161h21.96a.62.62,0,0,0,0-1.24h-18.969a4.149,4.149,0,0,0,1.2-2.923v-14.5a.62.62,0,1,0-1.24,0V487a2.926,2.926,0,0,1-2.907,2.922h-.016a2.926,2.926,0,0,1-2.923-2.922V459.515a.9.9,0,0,1,.9-.9h4.949v11.572a.62.62,0,1,0,1.24,0V454.136a.9.9,0,0,1,.9-.9H1114.9a.9.9,0,0,1,.9.9V487a2.926,2.926,0,0,1-2.923,2.923h-9.751a.62.62,0,0,0,0,1.24h9.751a4.168,4.168,0,0,0,4.163-4.163V454.136A2.139,2.139,0,0,0,1114.9,452Z" transform="translate(-1074.712 -452)"/><path d="M1146.888,541.059h8.5a1.469,1.469,0,0,0,1.467-1.467v-8.5a1.469,1.469,0,0,0-1.467-1.467h-8.5a1.469,1.469,0,0,0-1.467,1.467v8.5A1.468,1.468,0,0,0,1146.888,541.059Zm-.227-9.969a.227.227,0,0,1,.227-.227h8.5a.228.228,0,0,1,.227.227v8.5a.227.227,0,0,1-.227.227h-8.5a.227.227,0,0,1-.227-.227Z" transform="translate(-1133.306 -516.323)"/><path d="M1222.318,530.863h11.506a.62.62,0,1,0,0-1.24h-11.506a.62.62,0,0,0,0,1.24Z" transform="translate(-1196.513 -516.323)"/><path d="M1222.318,560.617h11.506a.62.62,0,1,0,0-1.24h-11.506a.62.62,0,0,0,0,1.24Z" transform="translate(-1196.513 -540.979)"/><path d="M1222.318,590.371h11.506a.62.62,0,1,0,0-1.24h-11.506a.62.62,0,0,0,0,1.24Z" transform="translate(-1196.513 -565.634)"/><path d="M1146.041,620.125h24.576a.62.62,0,0,0,0-1.24h-24.576a.62.62,0,0,0,0,1.24Z" transform="translate(-1133.306 -590.29)"/><path d="M1146.041,649.879h24.576a.62.62,0,0,0,0-1.24h-24.576a.62.62,0,0,0,0,1.24Z" transform="translate(-1133.306 -614.946)"/><g transform="translate(12.131 3.113)"><path class="f" d="M1145.514,477.427v-6.551a.334.334,0,0,1,.192-.308.945.945,0,0,1,.464-.106.982.982,0,0,1,.555.131,1.64,1.64,0,0,1,.424.565l1.948,3.765v-4.058a.324.324,0,0,1,.192-.3,1.118,1.118,0,0,1,.928,0,.325.325,0,0,1,.192.3v6.561a.337.337,0,0,1-.2.3.919.919,0,0,1-.459.111.788.788,0,0,1-.757-.414l-2.17-4.058v4.058a.337.337,0,0,1-.2.3,1.016,1.016,0,0,1-.924,0A.338.338,0,0,1,1145.514,477.427Z" transform="translate(-1145.514 -470.411)"/><path class="f" d="M1181.153,477.427v-6.551a.344.344,0,0,1,.172-.3.727.727,0,0,1,.4-.111h3.593a.34.34,0,0,1,.308.172.732.732,0,0,1,.106.394.745.745,0,0,1-.111.414.344.344,0,0,1-.3.172h-2.856v2.019H1184a.352.352,0,0,1,.3.156.62.62,0,0,1,.111.368.608.608,0,0,1-.106.348.349.349,0,0,1-.308.156h-1.534v2.029h2.856a.344.344,0,0,1,.3.172.745.745,0,0,1,.111.414.731.731,0,0,1-.106.394.34.34,0,0,1-.308.172h-3.593a.725.725,0,0,1-.4-.111A.344.344,0,0,1,1181.153,477.427Z" transform="translate(-1175.046 -470.411)"/><path class="f" d="M1211.727,470.987a.442.442,0,0,1,.273-.368,1.12,1.12,0,0,1,.565-.157q.363,0,.434.262l1.595,5.471.858-3.513q.091-.363.646-.363t.636.363l.858,3.513,1.595-5.471q.07-.262.434-.262a1.122,1.122,0,0,1,.565.157.442.442,0,0,1,.272.368.379.379,0,0,1-.02.121l-2,6.349q-.151.444-.858.444a1.246,1.246,0,0,1-.545-.116.491.491,0,0,1-.293-.328l-.646-2.725-.656,2.725a.491.491,0,0,1-.293.328,1.244,1.244,0,0,1-.545.116,1.271,1.271,0,0,1-.555-.116.525.525,0,0,1-.3-.328l-2-6.349A.379.379,0,0,1,1211.727,470.987Z" transform="translate(-1200.382 -470.411)"/><path class="f" d="M1264.627,476.435a.787.787,0,0,1,.177-.469.5.5,0,0,1,.4-.237.517.517,0,0,1,.3.126,3.438,3.438,0,0,1,.323.278,1.478,1.478,0,0,0,.449.278,1.618,1.618,0,0,0,.646.126,1.391,1.391,0,0,0,.807-.222.744.744,0,0,0,.323-.656.88.88,0,0,0-.177-.54,1.408,1.408,0,0,0-.464-.394q-.288-.156-.631-.3t-.691-.328a4.031,4.031,0,0,1-.636-.409,1.631,1.631,0,0,1-.464-.606,2.016,2.016,0,0,1-.177-.863,2.039,2.039,0,0,1,.217-.958,1.651,1.651,0,0,1,.58-.645,2.72,2.72,0,0,1,.777-.338,3.493,3.493,0,0,1,.878-.107,4.522,4.522,0,0,1,.555.036,5.121,5.121,0,0,1,.621.119,1.308,1.308,0,0,1,.535.259.531.531,0,0,1,.207.415.919.919,0,0,1-.141.465.43.43,0,0,1-.384.24,1.9,1.9,0,0,1-.495-.192,2.071,2.071,0,0,0-.9-.192,1.465,1.465,0,0,0-.843.207.657.657,0,0,0-.3.57.665.665,0,0,0,.242.51,1.894,1.894,0,0,0,.6.353q.358.136.777.343a6.628,6.628,0,0,1,.777.449,1.883,1.883,0,0,1,.6.7,2.271,2.271,0,0,1,.242,1.075,1.982,1.982,0,0,1-.661,1.6,2.6,2.6,0,0,1-1.741.562,3.254,3.254,0,0,1-1.645-.394Q1264.627,476.9,1264.627,476.435Z" transform="translate(-1244.218 -470.167)"/></g></g></svg>