<svg xmlns="http://www.w3.org/2000/svg" width="18.28" height="22.454" viewBox="0 0 18.28 22.454"><defs><style>.a{fill:#777;}</style></defs><g transform="translate(-44.806)"><path class="a" d="M119.627,298.007c0-.373-.259-.6-.715-.6a1.585,1.585,0,0,0-.379.036v1.2a1.433,1.433,0,0,0,.307.023C119.326,298.668,119.627,298.422,119.627,298.007Z" transform="translate(-70.293 -283.561)"/><path class="a" d="M194.219,297.681a1.89,1.89,0,0,0-.415.036v2.65a1.658,1.658,0,0,0,.319.018,1.256,1.256,0,0,0,1.37-1.418A1.162,1.162,0,0,0,194.219,297.681Z" transform="translate(-142.059 -283.818)"/><path class="a" d="M57.411,0H48.392A2.393,2.393,0,0,0,46,2.39v8.837h-.233a.963.963,0,0,0-.963.963v5.84a.963.963,0,0,0,.963.963H46v1.071a2.392,2.392,0,0,0,2.39,2.39H60.7a2.392,2.392,0,0,0,2.389-2.39V5.656ZM47.332,13.244a7.548,7.548,0,0,1,1.238-.084,1.942,1.942,0,0,1,1.238.324,1.184,1.184,0,0,1,.433.937,1.3,1.3,0,0,1-.373.962,1.878,1.878,0,0,1-1.316.426,2.372,2.372,0,0,1-.313-.018V17.24h-.907ZM60.7,20.99H48.392a.927.927,0,0,1-.926-.926V18.993H58.938a.963.963,0,0,0,.963-.963V12.19a.963.963,0,0,0-.963-.963H47.467V2.39a.927.927,0,0,1,.926-.925l8.471-.009V4.587A1.658,1.658,0,0,0,58.52,6.245l3.067-.009.035,13.828A.926.926,0,0,1,60.7,20.99Zm-9.872-3.768V13.244a8.248,8.248,0,0,1,1.238-.084,2.608,2.608,0,0,1,1.659.432,1.792,1.792,0,0,1,.685,1.527,2.053,2.053,0,0,1-.673,1.64,2.907,2.907,0,0,1-1.869.523A7.928,7.928,0,0,1,50.826,17.222Zm6.558-2.355v.745H55.93V17.24H55.01V13.19h2.476v.751H55.93v.926Z"/></g></svg>