<svg xmlns="http://www.w3.org/2000/svg" xmlns:xlink="http://www.w3.org/1999/xlink" width="29.67" height="29.408" viewBox="0 0 29.67 29.408"><defs><style>.a{fill:url(#a);}</style><linearGradient id="a" x1="0.963" x2="0" gradientUnits="objectBoundingBox"><stop offset="0" stop-color="#004664"/><stop offset="0.169" stop-color="#005674"/><stop offset="1" stop-color="#00a2c3"/></linearGradient></defs><path class="a" d="M10.273,25.714a4.591,4.591,0,0,1-6.427-6.427c-2.663-.643-4.131-2.2-3.948-5.05.184-2.112,1.469-3.4,3.856-3.948-1.194-2.2-1.194-4.223.734-6.151a4.272,4.272,0,0,1,2.846-1.1,4.407,4.407,0,0,1,2.938,1.01A4.355,4.355,0,0,1,14.5.1a4.283,4.283,0,0,1,3.122,1.01,4.081,4.081,0,0,1,1.561,2.938c2.3-1.377,4.407-1.285,6.243.643a3.224,3.224,0,0,1,1.194,2.754,4.023,4.023,0,0,1-1.01,2.846c2.479.551,3.856,2.02,3.948,4.5a4.331,4.331,0,0,1-1.1,2.938A4.518,4.518,0,0,1,25.606,19.2a4.427,4.427,0,0,1,.826,3.948,4.155,4.155,0,0,1-1.469,2.3,4.415,4.415,0,0,1-5.692.092c-.643,2.662-2.2,4.131-4.958,3.948C12.109,29.478,10.732,28.009,10.273,25.714ZM22.668,14.788c-.092-.184-.275-.275-.367-.459a10.65,10.65,0,0,0-1.928-1.469c-.367-.275-.367-.275-.275-.734a8.187,8.187,0,0,0,.275-2.571c0-.367,0-.367-.459-.459a12.237,12.237,0,0,0-2.571.275c-.459.092-.459.092-.734-.275a7.988,7.988,0,0,0-1.561-1.928c-.092-.092-.275-.184-.367-.275a.717.717,0,0,0-.367.367C13.854,7.9,13.3,8.454,12.844,9.1c-.367.459-.275.459-.918.367-.734-.092-1.469-.184-2.112-.275-.643,0-.643,0-.643.734.092.826.184,1.561.275,2.387a.385.385,0,0,1-.275.551,1.921,1.921,0,0,0-.551.367A7.463,7.463,0,0,0,6.876,14.88c.092.092.184.275.275.367a8.48,8.48,0,0,0,2.02,1.561c.367.184.367.275.275.643a8.477,8.477,0,0,0-.275,2.663c0,.367,0,.367.367.367a11.614,11.614,0,0,0,2.571-.275c.459-.092.459-.092.734.275a10.022,10.022,0,0,0,1.194,1.561,2.479,2.479,0,0,0,.734.643,7.572,7.572,0,0,0,1.928-2.3c.184-.367.275-.367.643-.275a7.906,7.906,0,0,0,2.571.275c.459,0,.459,0,.459-.459a12.237,12.237,0,0,0-.275-2.571c-.092-.459-.092-.459.275-.643s.643-.459,1.01-.643A4.29,4.29,0,0,0,22.668,14.788ZM4.4,19.563h0c-.092.092-.092.092-.092.184A9.774,9.774,0,0,0,4.4,24.888c.092.275.275.367.551.459a9.724,9.724,0,0,0,4.591.184,2.336,2.336,0,0,0,.643-.184,4.169,4.169,0,0,1-1.653-1.928A4.235,4.235,0,0,1,8.8,20.848,3.281,3.281,0,0,1,4.4,19.563Zm15.057,5.692c.184.092.184.092.275.092a9.691,9.691,0,0,0,4.866-.092.78.78,0,0,0,.643-.643,12.018,12.018,0,0,0,.275-4.04,7.247,7.247,0,0,0-.275-1.194c-1.194,1.653-2.662,2.2-4.591,1.285C21.658,22.684,21.2,24.153,19.454,25.255ZM10.09,4.414a.285.285,0,0,0-.184-.092,9.706,9.706,0,0,0-4.866,0,.875.875,0,0,0-.734.734,10.094,10.094,0,0,0-.092,4.682c0,.092.092.184.184.367a1.267,1.267,0,0,1,.275-.367,3.138,3.138,0,0,1,3.581-1.1,5.85,5.85,0,0,0,.643.184A3.173,3.173,0,0,1,10.09,4.414Zm15.149,5.692a14.252,14.252,0,0,0,.367-1.928,8.433,8.433,0,0,0-.367-3.4c-.092-.184-.184-.367-.367-.367a8.643,8.643,0,0,0-4.04-.275q-.551.138-1.377.275a3.391,3.391,0,0,1,1.653,1.928,4.235,4.235,0,0,1-.275,2.571,3.173,3.173,0,0,1,4.407,1.194ZM6.325,14.88a3.345,3.345,0,0,1-2.2-4.131A10.314,10.314,0,0,0,.358,14.421a.689.689,0,0,0,0,.826,9.079,9.079,0,0,0,2.3,2.663c.459.367.918.643,1.377,1.01a4.1,4.1,0,0,1,.275-2.571,4,4,0,0,1,2.02-1.469Zm16.985,0a3.287,3.287,0,0,1,2.2,4.04h.092a10.063,10.063,0,0,0,3.672-3.672.777.777,0,0,0,0-.643A9.824,9.824,0,0,0,25.7,10.932h-.184A3.3,3.3,0,0,1,23.31,14.88Zm-4.5-10.834a.32.32,0,0,0-.092-.184A9.337,9.337,0,0,0,15.139.374a.689.689,0,0,0-.826,0,7.9,7.9,0,0,0-2.663,2.3c-.367.459-.643.918-1.1,1.469.459,0,.826-.092,1.194-.092a3.069,3.069,0,0,1,2.846,2.02c0,.092.092.184.184.275C15.874,4.414,16.516,4.047,18.812,4.047ZM10.732,25.53A9.289,9.289,0,0,0,14.5,29.295a.558.558,0,0,0,.734,0A9.824,9.824,0,0,0,18.9,25.714V25.53a3.328,3.328,0,0,1-4.04-2.2A3.507,3.507,0,0,1,10.732,25.53Zm10.1-5.141h.275a9.35,9.35,0,0,0,3.856-1.1c.184-.092.184-.275.092-.459A9.752,9.752,0,0,0,23.4,15.8c-.184-.184-.275-.367-.459-.551a3.563,3.563,0,0,1-.551,1.01,3.167,3.167,0,0,1-.826.734c-.275.184-.734.184-1.1.367a2.179,2.179,0,0,1,.367,3.03ZM6.693,15.156c-.092.092-.092.092-.184.092a10.22,10.22,0,0,0-2.02,3.489c-.092.275,0,.367.184.551a13.555,13.555,0,0,0,2.479.918,5.084,5.084,0,0,0,1.653.184,2.387,2.387,0,0,1,.275-3.122A2.546,2.546,0,0,1,6.693,15.156ZM20.831,9.372a2.387,2.387,0,0,1-.275,3.122A2.459,2.459,0,0,1,22.943,14.6c.275-.275.367-.459.551-.643a7.391,7.391,0,0,0,1.469-2.938c.092-.367.092-.459-.275-.643a10.079,10.079,0,0,0-3.213-1.01C21.382,9.28,21.107,9.372,20.831,9.372ZM9.263,8.821a2.5,2.5,0,0,1,3.122.275,2.387,2.387,0,0,1,1.928-2.387V6.526a.092.092,0,0,0-.092-.092A10.107,10.107,0,0,0,11.008,4.6c-.459-.184-.459-.092-.643.275a9.907,9.907,0,0,0-1.01,3.305,1.362,1.362,0,0,0-.092.643Zm7.9.367a2.5,2.5,0,0,1,3.213-.275,4.851,4.851,0,0,1-.092-1.1,10.934,10.934,0,0,0-.918-2.938c-.184-.367-.275-.367-.551-.275a9.508,9.508,0,0,0-3.03,1.561c-.184.184-.367.275-.551.459A2.517,2.517,0,0,1,17.159,9.188ZM8.8,9.372H8.437a8.551,8.551,0,0,0-3.672,1.1c-.275.092-.275.275-.184.551a9.752,9.752,0,0,0,1.653,3.03c.092.184.275.275.459.551a2.479,2.479,0,0,1,2.479-2.112A2.3,2.3,0,0,1,8.8,9.372ZM15.231,22.96c0,.092,0,.092.092.092l.092.092a9.6,9.6,0,0,0,3.4,1.928c.275.092.367,0,.551-.275a10.528,10.528,0,0,0,1.01-2.846,4.85,4.85,0,0,0,.092-1.194,2.832,2.832,0,0,1-1.653.459,3.181,3.181,0,0,1-1.469-.734A2.663,2.663,0,0,1,15.231,22.96Zm-2.754-2.387a2.387,2.387,0,0,1-3.122.275v.275a8.946,8.946,0,0,0,1.1,3.764c.092.275.275.184.551.092a9.508,9.508,0,0,0,3.03-1.561,3.116,3.116,0,0,0,.551-.551,2.234,2.234,0,0,1-2.112-2.3Z" transform="translate(0.117 -0.085)"/></svg>