<svg xmlns="http://www.w3.org/2000/svg" width="18.264" height="18.264" viewBox="0 0 18.264 18.264"><defs><style>.a,.b{fill:#00a2c3;}.a{stroke:#00a2c3;stroke-width:0.7px;}</style></defs><g transform="translate(0.35 0.35)"><path class="a" d="M14.82-6.674a2.646,2.646,0,0,0-1.244.3,2.733,2.733,0,0,0-.952.815L5.386-9.247a2.612,2.612,0,0,0,.1-.72,2.493,2.493,0,0,0-.043-.455,3.258,3.258,0,0,0-.111-.437l7.273-3.533a2.645,2.645,0,0,0,.961.832,2.7,2.7,0,0,0,1.252.3,2.643,2.643,0,0,0,1.938-.806,2.643,2.643,0,0,0,.806-1.938,2.685,2.685,0,0,0-.369-1.372,2.725,2.725,0,0,0-1-1,2.685,2.685,0,0,0-1.372-.369,2.685,2.685,0,0,0-1.372.369,2.725,2.725,0,0,0-1,1,2.685,2.685,0,0,0-.369,1.372v.1a.625.625,0,0,0,.009.1.625.625,0,0,1,.009.1.625.625,0,0,0,.009.1.677.677,0,0,0,.026.1.324.324,0,0,1,.017.1L4.768-11.8a2.669,2.669,0,0,0-.9-.669,2.661,2.661,0,0,0-1.124-.24,2.643,2.643,0,0,0-1.938.806A2.643,2.643,0,0,0,0-9.968,2.643,2.643,0,0,0,.806-8.03a2.643,2.643,0,0,0,1.938.806A2.6,2.6,0,0,0,4.889-8.27l7.273,3.7a1.355,1.355,0,0,0-.051.206q-.017.1-.026.214t-.009.214a2.685,2.685,0,0,0,.369,1.372,2.725,2.725,0,0,0,1,1,2.685,2.685,0,0,0,1.372.369,2.643,2.643,0,0,0,1.938-.806,2.643,2.643,0,0,0,.806-1.938,2.643,2.643,0,0,0-.806-1.938A2.643,2.643,0,0,0,14.82-6.674Zm-1.166-10.5a1.588,1.588,0,0,1,1.166-.48,1.588,1.588,0,0,1,1.166.48,1.588,1.588,0,0,1,.48,1.166,1.588,1.588,0,0,1-.48,1.166,1.588,1.588,0,0,1-1.166.48,1.588,1.588,0,0,1-1.166-.48,1.588,1.588,0,0,1-.48-1.166A1.588,1.588,0,0,1,13.654-17.172ZM3.911-8.8a1.588,1.588,0,0,1-1.166.48A1.588,1.588,0,0,1,1.578-8.8,1.588,1.588,0,0,1,1.1-9.968a1.588,1.588,0,0,1,.48-1.166,1.588,1.588,0,0,1,1.166-.48,1.588,1.588,0,0,1,1.166.48,1.588,1.588,0,0,1,.48,1.166A1.588,1.588,0,0,1,3.911-8.8ZM15.986-2.764a1.588,1.588,0,0,1-1.166.48,1.588,1.588,0,0,1-1.166-.48,1.588,1.588,0,0,1-.48-1.166,1.588,1.588,0,0,1,.48-1.166,1.588,1.588,0,0,1,1.166-.48,1.588,1.588,0,0,1,1.166.48,1.588,1.588,0,0,1,.48,1.166A1.588,1.588,0,0,1,15.986-2.764Z" transform="translate(0 18.75)"/><circle class="b" cx="2.5" cy="2.5" r="2.5" transform="translate(0 6.282)"/><circle class="b" cx="2.5" cy="2.5" r="2.5" transform="translate(12 12.564)"/><circle class="b" cx="2.5" cy="2.5" r="2.5" transform="translate(12.564 0)"/></g></svg>